<?xml version="1.0" encoding="UTF-8" standalone="no"?>
<!DOCTYPE svg PUBLIC "-//W3C//DTD SVG 1.1//EN"
 "http://www.w3.org/Graphics/SVG/1.1/DTD/svg11.dtd">
<!-- Generated by graphviz version 12.2.1 (20241206.2353)
 -->
<!-- Title: G Pages: 1 -->
<svg width="864pt" height="220pt"
 viewBox="0.00 0.00 864.00 220.00" xmlns="http://www.w3.org/2000/svg" xmlns:xlink="http://www.w3.org/1999/xlink">
<g id="graph0" class="graph" transform="scale(1 1) rotate(0) translate(4 216)">
<title>G</title>
<g id="clust1" class="cluster">
<title>cluster_src</title>
<polygon fill="none" stroke="black" points="8,-80 8,-204 424,-204 424,-80 8,-80"/>
</g>
<g id="clust2" class="cluster">
<title>cluster_dst</title>
<polygon fill="none" stroke="black" points="432,-8 432,-132 848,-132 848,-8 432,-8"/>
</g>
<!-- n_src_0 -->
<g id="node1" class="node">
<title>n_src_0</title>
<ellipse fill="lightgray" stroke="black" cx="279" cy="-178" rx="73.87" ry="18"/>
<text text-anchor="middle" x="279" y="-172.95" font-family="Times,serif" font-size="14.00">Src Virtual Node</text>
</g>
<!-- n_src_1 -->
<g id="node2" class="node">
<title>n_src_1</title>
<ellipse fill="lightseagreen" stroke="black" cx="216" cy="-106" rx="60.56" ry="18"/>
<text text-anchor="middle" x="216" y="-100.95" font-family="Times,serif" font-size="14.00">src file1 AST</text>
</g>
<!-- n_src_0&#45;&gt;n_src_1 -->
<g id="edge1" class="edge">
<title>n_src_0&#45;&gt;n_src_1</title>
<path fill="none" stroke="black" d="M263.75,-160.05C256.24,-151.71 247.04,-141.49 238.73,-132.25"/>
<polygon fill="black" stroke="black" points="241.41,-130.01 232.12,-124.91 236.21,-134.69 241.41,-130.01"/>
</g>
<!-- n_src_2 -->
<g id="node3" class="node">
<title>n_src_2</title>
<ellipse fill="lightslategrey" stroke="black" cx="355" cy="-106" rx="60.56" ry="18"/>
<text text-anchor="middle" x="355" y="-100.95" font-family="Times,serif" font-size="14.00">src file2 AST</text>
</g>
<!-- n_src_0&#45;&gt;n_src_2 -->
<g id="edge2" class="edge">
<title>n_src_0&#45;&gt;n_src_2</title>
<path fill="none" stroke="black" d="M297.01,-160.41C306.48,-151.69 318.25,-140.85 328.72,-131.21"/>
<polygon fill="black" stroke="black" points="331.02,-133.84 336.01,-124.5 326.28,-128.7 331.02,-133.84"/>
</g>
<!-- n_src_3 -->
<g id="node4" class="node">
<title>n_src_3</title>
<ellipse fill="lightblue" stroke="black" cx="77" cy="-106" rx="60.56" ry="18"/>
<text text-anchor="middle" x="77" y="-100.95" font-family="Times,serif" font-size="14.00">src file3 AST</text>
</g>
<!-- n_src_0&#45;&gt;n_src_3 -->
<g id="edge3" class="edge">
<title>n_src_0&#45;&gt;n_src_3</title>
<path fill="none" stroke="black" d="M236.39,-162.84C210.26,-154.09 176.14,-142.56 146,-132 139.13,-129.59 131.9,-127.02 124.8,-124.47"/>
<polygon fill="black" stroke="black" points="126.21,-121.26 115.61,-121.15 123.83,-127.84 126.21,-121.26"/>
</g>
<!-- n_dst_0 -->
<g id="node5" class="node">
<title>n_dst_0</title>
<ellipse fill="lightgray" stroke="black" cx="577" cy="-106" rx="74.38" ry="18"/>
<text text-anchor="middle" x="577" y="-100.95" font-family="Times,serif" font-size="14.00">Dst Virtual Node</text>
</g>
<!-- n_src_0&#45;&gt;n_dst_0 -->
<g id="edge7" class="edge">
<title>n_src_0&#45;&gt;n_dst_0</title>
<path fill="none" stroke="black" stroke-dasharray="5,2" d="M330.91,-164.81C381.84,-152.84 459.59,-134.58 514.03,-121.79"/>
<polygon fill="black" stroke="black" points="514.53,-125.27 523.46,-119.58 512.93,-118.46 514.53,-125.27"/>
</g>
<!-- n_dst_1 -->
<g id="node6" class="node">
<title>n_dst_1</title>
<ellipse fill="lightseagreen" stroke="black" cx="640" cy="-34" rx="60.56" ry="18"/>
<text text-anchor="middle" x="640" y="-28.95" font-family="Times,serif" font-size="14.00">dst file1 AST</text>
</g>
<!-- n_src_1&#45;&gt;n_dst_1 -->
<g id="edge8" class="edge">
<title>n_src_1&#45;&gt;n_dst_1</title>
<path fill="none" stroke="black" stroke-dasharray="5,2" d="M250.24,-90.68C261.18,-86.63 273.44,-82.62 285,-80 409.57,-51.8 445.11,-73.55 571,-52 575.58,-51.22 580.31,-50.29 585.04,-49.29"/>
<polygon fill="black" stroke="black" points="585.56,-52.76 594.55,-47.17 584.03,-45.93 585.56,-52.76"/>
</g>
<!-- n_dst_2 -->
<g id="node7" class="node">
<title>n_dst_2</title>
<ellipse fill="lightslategrey" stroke="black" cx="779" cy="-34" rx="60.56" ry="18"/>
<text text-anchor="middle" x="779" y="-28.95" font-family="Times,serif" font-size="14.00">dst file2 AST</text>
</g>
<!-- n_src_2&#45;&gt;n_dst_2 -->
<g id="edge9" class="edge">
<title>n_src_2&#45;&gt;n_dst_2</title>
<path fill="none" stroke="black" stroke-dasharray="5,2" d="M390.55,-90.99C402.31,-86.85 415.57,-82.71 428,-80 551.06,-53.2 585.87,-73.34 710,-52 714.58,-51.21 719.31,-50.29 724.04,-49.28"/>
<polygon fill="black" stroke="black" points="724.55,-52.76 733.55,-47.16 723.03,-45.93 724.55,-52.76"/>
</g>
<!-- n_dst_3 -->
<g id="node8" class="node">
<title>n_dst_3</title>
<ellipse fill="lightblue" stroke="black" cx="501" cy="-34" rx="60.56" ry="18"/>
<text text-anchor="middle" x="501" y="-28.95" font-family="Times,serif" font-size="14.00">dst file3 AST</text>
</g>
<!-- n_src_3&#45;&gt;n_dst_3 -->
<g id="edge10" class="edge">
<title>n_src_3&#45;&gt;n_dst_3</title>
<path fill="none" stroke="black" stroke-dasharray="5,2" d="M111.29,-90.88C122.23,-86.84 134.48,-82.78 146,-80 243.16,-56.55 358.42,-44.8 430.65,-39.31"/>
<polygon fill="black" stroke="black" points="430.63,-42.82 440.35,-38.59 430.12,-35.84 430.63,-42.82"/>
</g>
<!-- n_dst_0&#45;&gt;n_dst_1 -->
<g id="edge4" class="edge">
<title>n_dst_0&#45;&gt;n_dst_1</title>
<path fill="none" stroke="black" d="M592.25,-88.05C599.76,-79.71 608.96,-69.49 617.27,-60.25"/>
<polygon fill="black" stroke="black" points="619.79,-62.69 623.88,-52.91 614.59,-58.01 619.79,-62.69"/>
</g>
<!-- n_dst_0&#45;&gt;n_dst_2 -->
<g id="edge5" class="edge">
<title>n_dst_0&#45;&gt;n_dst_2</title>
<path fill="none" stroke="black" d="M618.37,-90.67C650.76,-79.44 695.9,-63.8 730.08,-51.95"/>
<polygon fill="black" stroke="black" points="731.03,-55.33 739.33,-48.75 728.74,-48.71 731.03,-55.33"/>
</g>
<!-- n_dst_0&#45;&gt;n_dst_3 -->
<g id="edge6" class="edge">
<title>n_dst_0&#45;&gt;n_dst_3</title>
<path fill="none" stroke="black" d="M558.99,-88.41C549.52,-79.69 537.75,-68.85 527.28,-59.21"/>
<polygon fill="black" stroke="black" points="529.72,-56.7 519.99,-52.5 524.98,-61.84 529.72,-56.7"/>
</g>
</g>
</svg>
