<?xml version="1.0" encoding="UTF-8" standalone="no"?>
<!DOCTYPE svg PUBLIC "-//W3C//DTD SVG 1.1//EN"
 "http://www.w3.org/Graphics/SVG/1.1/DTD/svg11.dtd">
<!-- Generated by graphviz version 12.2.1 (20241206.2353)
 -->
<!-- Title: G Pages: 1 -->
<svg width="888pt" height="220pt"
 viewBox="0.00 0.00 888.00 220.00" xmlns="http://www.w3.org/2000/svg" xmlns:xlink="http://www.w3.org/1999/xlink">
<g id="graph0" class="graph" transform="scale(1 1) rotate(0) translate(4 216)">
<title>G</title>
<polygon fill="white" stroke="none" points="-4,4 -4,-216 884,-216 884,4 -4,4"/>
<g id="clust1" class="cluster">
<title>cluster_src </title>
<polygon fill="none" stroke="black" points="8,-80 8,-204 436,-204 436,-80 8,-80"/>
</g>
<g id="clust2" class="cluster">
<title>cluster_dst </title>
<polygon fill="none" stroke="black" points="444,-8 444,-132 872,-132 872,-8 444,-8"/>
</g>
<!-- n_src_3 -->
<g id="node1" class="node">
<title>n_src_3</title>
<ellipse fill="lightgrey" stroke="lightgrey" cx="289" cy="-178" rx="72.34" ry="18"/>
<text text-anchor="middle" x="289" y="-172.95" font-family="Times,serif" font-size="14.00">src_VirtualNode</text>
</g>
<!-- n_src_0 -->
<g id="node2" class="node">
<title>n_src_0</title>
<ellipse fill="red" stroke="red" cx="79" cy="-106" rx="62.61" ry="18"/>
<text text-anchor="middle" x="79" y="-100.95" font-family="Times,serif" font-size="14.00">src_file1_root</text>
</g>
<!-- n_src_3&#45;&gt;n_src_0 -->
<g id="edge1" class="edge">
<title>n_src_3&#45;&gt;n_src_0</title>
<path fill="none" stroke="black" d="M245.39,-163.2C217.96,-154.43 181.84,-142.76 150,-132 142.85,-129.58 135.3,-126.98 127.92,-124.41"/>
<polygon fill="black" stroke="black" points="129.28,-121.18 118.69,-121.17 126.97,-127.78 129.28,-121.18"/>
</g>
<!-- n_src_1 -->
<g id="node3" class="node">
<title>n_src_1</title>
<ellipse fill="red" stroke="red" cx="222" cy="-106" rx="62.61" ry="18"/>
<text text-anchor="middle" x="222" y="-100.95" font-family="Times,serif" font-size="14.00">src_file2_root</text>
</g>
<!-- n_src_3&#45;&gt;n_src_1 -->
<g id="edge2" class="edge">
<title>n_src_3&#45;&gt;n_src_1</title>
<path fill="none" stroke="black" d="M272.78,-160.05C264.72,-151.63 254.81,-141.28 245.9,-131.97"/>
<polygon fill="black" stroke="black" points="248.56,-129.69 239.12,-124.88 243.5,-134.53 248.56,-129.69"/>
</g>
<!-- n_src_2 -->
<g id="node4" class="node">
<title>n_src_2</title>
<ellipse fill="red" stroke="red" cx="365" cy="-106" rx="62.61" ry="18"/>
<text text-anchor="middle" x="365" y="-100.95" font-family="Times,serif" font-size="14.00">src_file3_root</text>
</g>
<!-- n_src_3&#45;&gt;n_src_2 -->
<g id="edge3" class="edge">
<title>n_src_3&#45;&gt;n_src_2</title>
<path fill="none" stroke="black" d="M307.01,-160.41C316.41,-151.76 328.08,-141 338.49,-131.42"/>
<polygon fill="black" stroke="black" points="340.76,-134.09 345.74,-124.74 336.02,-128.94 340.76,-134.09"/>
</g>
<!-- n_dst_3 -->
<g id="node5" class="node">
<title>n_dst_3</title>
<ellipse fill="lightgrey" stroke="lightgrey" cx="591" cy="-106" rx="72.34" ry="18"/>
<text text-anchor="middle" x="591" y="-100.95" font-family="Times,serif" font-size="14.00">dst_VirtualNode</text>
</g>
<!-- n_src_3&#45;&gt;n_dst_3 -->
<g id="edge7" class="edge">
<title>n_src_3&#45;&gt;n_dst_3</title>
<path fill="none" stroke="black" stroke-dasharray="5,2" d="M340.57,-165.05C392.5,-153.01 472.68,-134.42 528.27,-121.54"/>
<polygon fill="black" stroke="black" points="528.96,-124.97 537.91,-119.3 527.38,-118.15 528.96,-124.97"/>
</g>
<!-- n_dst_0 -->
<g id="node6" class="node">
<title>n_dst_0</title>
<ellipse fill="green" stroke="green" cx="515" cy="-34" rx="62.61" ry="18"/>
<text text-anchor="middle" x="515" y="-28.95" font-family="Times,serif" font-size="14.00">dst_file1_root</text>
</g>
<!-- n_dst_3&#45;&gt;n_dst_0 -->
<g id="edge4" class="edge">
<title>n_dst_3&#45;&gt;n_dst_0</title>
<path fill="none" stroke="black" d="M572.99,-88.41C563.59,-79.76 551.92,-69 541.51,-59.42"/>
<polygon fill="black" stroke="black" points="543.98,-56.94 534.26,-52.74 539.24,-62.09 543.98,-56.94"/>
</g>
<!-- n_dst_1 -->
<g id="node7" class="node">
<title>n_dst_1</title>
<ellipse fill="green" stroke="green" cx="658" cy="-34" rx="62.61" ry="18"/>
<text text-anchor="middle" x="658" y="-28.95" font-family="Times,serif" font-size="14.00">dst_file2_root</text>
</g>
<!-- n_dst_3&#45;&gt;n_dst_1 -->
<g id="edge5" class="edge">
<title>n_dst_3&#45;&gt;n_dst_1</title>
<path fill="none" stroke="black" d="M607.22,-88.05C615.28,-79.63 625.19,-69.28 634.1,-59.97"/>
<polygon fill="black" stroke="black" points="636.5,-62.53 640.88,-52.88 631.44,-57.69 636.5,-62.53"/>
</g>
<!-- n_dst_2 -->
<g id="node8" class="node">
<title>n_dst_2</title>
<ellipse fill="green" stroke="green" cx="801" cy="-34" rx="62.61" ry="18"/>
<text text-anchor="middle" x="801" y="-28.95" font-family="Times,serif" font-size="14.00">dst_file3_root</text>
</g>
<!-- n_dst_3&#45;&gt;n_dst_2 -->
<g id="edge6" class="edge">
<title>n_dst_3&#45;&gt;n_dst_2</title>
<path fill="none" stroke="black" d="M632.99,-91C666.84,-79.72 714.54,-63.82 750.47,-51.84"/>
<polygon fill="black" stroke="black" points="751.4,-55.22 759.78,-48.74 749.19,-48.58 751.4,-55.22"/>
</g>
</g>
</svg>
