<?xml version="1.0" encoding="UTF-8" standalone="no"?>
<!-- Generated by graphviz version 12.2.1 (20241206.2353)
 -->

<!-- Title: G Pages: 1 -->

<svg
   width="1686pt"
   height="485.00003pt"
   viewBox="0 0 1686 485.00003"
   version="1.1"
   id="svg71"
   sodipodi:docname="tree.svg"
   xmlns:inkscape="http://www.inkscape.org/namespaces/inkscape"
   xmlns:sodipodi="http://sodipodi.sourceforge.net/DTD/sodipodi-0.dtd"
   xmlns="http://www.w3.org/2000/svg"
   xmlns:svg="http://www.w3.org/2000/svg">
  <defs
     id="defs71" />
  <sodipodi:namedview
     id="namedview71"
     pagecolor="#ffffff"
     bordercolor="#000000"
     borderopacity="0.25"
     inkscape:showpageshadow="2"
     inkscape:pageopacity="0.0"
     inkscape:pagecheckerboard="0"
     inkscape:deskcolor="#d1d1d1"
     inkscape:document-units="pt" />
  <g
     id="graph0"
     class="graph"
     transform="translate(-7.5,492.5)">
    <title
       id="title1">G</title>
    <g
       id="clust1"
       class="cluster">
      <title
         id="title2">cluster_src </title>
      <polygon
         fill="none"
         stroke="#000000"
         points="8,-80 8,-492 695,-492 695,-80 "
         id="polygon2" />
    </g>
    <g
       id="clust2"
       class="cluster">
      <title
         id="title3">cluster_dst </title>
      <polygon
         fill="none"
         stroke="#000000"
         points="703,-8 703,-420 1693,-420 1693,-8 "
         id="polygon3" />
    </g>
    <!-- n_src_13 -->
    <g
       id="node1"
       class="node">
      <title
         id="title4">n_src_13</title>
      <ellipse
         fill="#d3d3d3"
         stroke="#d3d3d3"
         cx="573"
         cy="-466"
         rx="73.870003"
         ry="18"
         id="ellipse4" />
      <text
         text-anchor="middle"
         x="573"
         y="-460.95001"
         font-family="Times, serif"
         font-size="14px"
         id="text4">CompilationUnit</text>
    </g>
    <!-- n_src_12 -->
    <g
       id="node2"
       class="node">
      <title
         id="title5">n_src_12</title>
      <ellipse
         fill="#d3d3d3"
         stroke="#d3d3d3"
         cx="533"
         cy="-394"
         rx="72.849998"
         ry="18"
         id="ellipse5" />
      <text
         text-anchor="middle"
         x="533"
         y="-388.95001"
         font-family="Times, serif"
         font-size="14px"
         id="text5">TypeDeclaration</text>
    </g>
    <!-- n_src_13&#45;&gt;n_src_12 -->
    <g
       id="edge1"
       class="edge">
      <title
         id="title6">n_src_13-&gt;n_src_12</title>
      <path
         fill="none"
         stroke="#000000"
         d="m 563.11,-447.7 c -4.45,7.8 -9.82,17.19 -14.78,25.87"
         id="path6" />
      <polygon
         fill="#000000"
         stroke="#000000"
         points="543.52,-413.42 545.45,-423.84 551.53,-420.36 "
         id="polygon6" />
    </g>
    <!-- n_dst_13 -->
    <g
       id="node15"
       class="node">
      <title
         id="title7">n_dst_13</title>
      <ellipse
         fill="#d3d3d3"
         stroke="#d3d3d3"
         cx="790"
         cy="-394"
         rx="73.870003"
         ry="18"
         id="ellipse7" />
      <text
         text-anchor="middle"
         x="790"
         y="-388.95001"
         font-family="Times, serif"
         font-size="14px"
         id="text7">CompilationUnit</text>
    </g>
    <!-- n_src_13&#45;&gt;n_dst_13 -->
    <g
       id="edge40"
       class="edge">
      <title
         id="title8">n_src_13-&gt;n_dst_13</title>
      <path
         fill="none"
         stroke="#000000"
         stroke-dasharray="5, 2"
         d="m 616.39,-451 c 34.45,11.11 82.79,26.7 119.72,38.61"
         id="path8" />
      <polygon
         fill="#000000"
         stroke="#000000"
         points="745.24,-409.44 734.65,-409.18 736.8,-415.84 "
         id="polygon8" />
    </g>
    <!-- n_src_0 -->
    <g
       id="node3"
       class="node">
      <title
         id="title9">n_src_0</title>
      <ellipse
         fill="#d3d3d3"
         stroke="#d3d3d3"
         cx="533"
         cy="-322"
         rx="153.71001"
         ry="18"
         id="ellipse9" />
      <text
         text-anchor="middle"
         x="533"
         y="-316.95001"
         font-family="Times, serif"
         font-size="14px"
         id="text9">TYPE_DECLARATION_KIND: class</text>
    </g>
    <!-- n_src_12&#45;&gt;n_src_0 -->
    <g
       id="edge2"
       class="edge">
      <title
         id="title10">n_src_12-&gt;n_src_0</title>
      <path
         fill="none"
         stroke="#000000"
         d="m 533,-375.7 c 0,7.29 0,15.97 0,24.16"
         id="path10" />
      <polygon
         fill="#000000"
         stroke="#000000"
         points="533,-341.62 529.5,-351.62 536.5,-351.62 "
         id="polygon10" />
    </g>
    <!-- n_src_1 -->
    <g
       id="node4"
       class="node">
      <title
         id="title11">n_src_1</title>
      <ellipse
         fill="#d3d3d3"
         stroke="#d3d3d3"
         cx="281"
         cy="-322"
         rx="80.519997"
         ry="18"
         id="ellipse11" />
      <text
         text-anchor="middle"
         x="281"
         y="-316.95001"
         font-family="Times, serif"
         font-size="14px"
         id="text11">SimpleName: Test</text>
    </g>
    <!-- n_src_12&#45;&gt;n_src_1 -->
    <g
       id="edge3"
       class="edge">
      <title
         id="title12">n_src_12-&gt;n_src_1</title>
      <path
         fill="none"
         stroke="#000000"
         d="m 485.9,-379.92 c -40.98,11.39 -100.58,27.94 -144.95,40.27"
         id="path12" />
      <polygon
         fill="#000000"
         stroke="#000000"
         points="331.48,-337.02 340.18,-343.07 342.05,-336.33 "
         id="polygon12" />
    </g>
    <!-- n_src_11 -->
    <g
       id="node5"
       class="node">
      <title
         id="title13">n_src_11</title>
      <ellipse
         fill="#d3d3d3"
         stroke="#d3d3d3"
         cx="99"
         cy="-322"
         rx="83.080002"
         ry="18"
         id="ellipse13" />
      <text
         text-anchor="middle"
         x="99"
         y="-316.95001"
         font-family="Times, serif"
         font-size="14px"
         id="text13">MethodDeclaration</text>
    </g>
    <!-- n_src_12&#45;&gt;n_src_11 -->
    <g
       id="edge4"
       class="edge">
      <title
         id="title14">n_src_12-&gt;n_src_11</title>
      <path
         fill="none"
         stroke="#000000"
         d="M 471.44,-384.01 C 402.9,-373.87 288.89,-356.63 191,-340 c -6.46,1.1 -13.17,2.27 -19.9,3.47"
         id="path14" />
      <polygon
         fill="#000000"
         stroke="#000000"
         points="161.31,-334.76 170.54,-339.98 171.78,-333.09 "
         id="polygon14" />
    </g>
    <!-- n_dst_12 -->
    <g
       id="node16"
       class="node">
      <title
         id="title15">n_dst_12</title>
      <ellipse
         fill="#d3d3d3"
         stroke="#d3d3d3"
         cx="794"
         cy="-322"
         rx="72.849998"
         ry="18"
         id="ellipse15" />
      <text
         text-anchor="middle"
         x="794"
         y="-316.95001"
         font-family="Times, serif"
         font-size="14px"
         id="text15">TypeDeclaration</text>
    </g>
    <!-- n_src_12&#45;&gt;n_dst_12 -->
    <g
       id="edge35"
       class="edge">
      <title
         id="title16">n_src_12-&gt;n_dst_12</title>
      <path
         fill="none"
         stroke="#000000"
         stroke-dasharray="5, 2"
         d="m 581.18,-380.08 c 43.4,11.64 107.35,28.79 153.81,41.25"
         id="path16" />
      <polygon
         fill="#000000"
         stroke="#000000"
         points="744.64,-336.24 734.08,-335.45 735.89,-342.21 "
         id="polygon16" />
    </g>
    <!-- n_dst_0 -->
    <g
       id="node17"
       class="node">
      <title
         id="title17">n_dst_0</title>
      <ellipse
         fill="#d3d3d3"
         stroke="#d3d3d3"
         cx="1320"
         cy="-250"
         rx="153.71001"
         ry="18"
         id="ellipse17" />
      <text
         text-anchor="middle"
         x="1320"
         y="-244.95"
         font-family="Times, serif"
         font-size="14px"
         id="text17">TYPE_DECLARATION_KIND: class</text>
    </g>
    <!-- n_src_0&#45;&gt;n_dst_0 -->
    <g
       id="edge27"
       class="edge">
      <title
         id="title18">n_src_0-&gt;n_dst_0</title>
      <path
         fill="none"
         stroke="#000000"
         stroke-dasharray="5, 2"
         d="m 644.13,-309.25 c 18.33,1.83 37.13,3.65 54.87,5.25 203.8,18.42 255.23,17.32 459,36 13.33,1.22 27.27,2.57 41.14,3.97"
         id="path18" />
      <polygon
         fill="#000000"
         stroke="#000000"
         points="1208.73,-263.06 1198.43,-260.59 1199.14,-267.55 "
         id="polygon18" />
    </g>
    <!-- n_dst_1 -->
    <g
       id="node18"
       class="node">
      <title
         id="title19">n_dst_1</title>
      <ellipse
         fill="#ffa500"
         stroke="#ffa500"
         cx="1022"
         cy="-250"
         rx="126.59"
         ry="18"
         id="ellipse19" />
      <text
         text-anchor="middle"
         x="1022"
         y="-244.95"
         font-family="Times, serif"
         font-size="14px"
         id="text19">SimpleName_TypeDeclaration</text>
    </g>
    <!-- n_src_1&#45;&gt;n_dst_1 -->
    <g
       id="edge34"
       class="edge">
      <title
         id="title20">n_src_1-&gt;n_dst_1</title>
      <path
         fill="none"
         stroke="#000000"
         stroke-dasharray="5, 2"
         d="m 338.29,-309.02 c 10.51,1.9 21.41,3.68 31.71,5.02 227.97,29.62 287.19,13.73 516,36 11.22,1.09 22.94,2.36 34.59,3.71"
         id="path20" />
      <polygon
         fill="#000000"
         stroke="#000000"
         points="930.23,-263.16 919.89,-260.85 920.7,-267.81 "
         id="polygon20" />
    </g>
    <!-- n_src_3 -->
    <g
       id="node6"
       class="node">
      <title
         id="title21">n_src_3</title>
      <ellipse
         fill="#d3d3d3"
         stroke="#d3d3d3"
         cx="458"
         cy="-250"
         rx="56.470001"
         ry="18"
         id="ellipse21" />
      <text
         text-anchor="middle"
         x="458"
         y="-244.95"
         font-family="Times, serif"
         font-size="14px"
         id="text21">SimpleType</text>
    </g>
    <!-- n_src_11&#45;&gt;n_src_3 -->
    <g
       id="edge5"
       class="edge">
      <title
         id="title22">n_src_11-&gt;n_src_3</title>
      <path
         fill="none"
         stroke="#000000"
         d="m 160.59,-309.62 c 82.41,15.23 218.9,40.47 224.41,41.62 5.89,1.23 12.04,2.57 18.15,3.94"
         id="path22" />
      <polygon
         fill="#000000"
         stroke="#000000"
         points="412.59,-261.91 402.06,-260.72 403.62,-267.54 "
         id="polygon22" />
    </g>
    <!-- n_src_4 -->
    <g
       id="node8"
       class="node">
      <title
         id="title23">n_src_4</title>
      <ellipse
         fill="#d3d3d3"
         stroke="#d3d3d3"
         cx="610"
         cy="-250"
         rx="77.449997"
         ry="18"
         id="ellipse23" />
      <text
         text-anchor="middle"
         x="610"
         y="-244.95"
         font-family="Times, serif"
         font-size="14px"
         id="text23">SimpleName: foo</text>
    </g>
    <!-- n_src_11&#45;&gt;n_src_4 -->
    <g
       id="edge7"
       class="edge">
      <title
         id="title24">n_src_11-&gt;n_src_4</title>
      <path
         fill="none"
         stroke="#000000"
         d="m 159.27,-309.2 c 10.55,1.88 21.44,3.69 31.73,5.2 146.86,21.5 185.26,13.75 332,36 6.43,0.98 13.12,2.09 19.79,3.28"
         id="path24" />
      <polygon
         fill="#000000"
         stroke="#000000"
         points="552.47,-262.95 542.01,-261.31 543.27,-268.19 "
         id="polygon24" />
    </g>
    <!-- n_src_7 -->
    <g
       id="node9"
       class="node">
      <title
         id="title25">n_src_7</title>
      <ellipse
         fill="#d3d3d3"
         stroke="#d3d3d3"
         cx="268"
         cy="-250"
         rx="108.16"
         ry="18"
         id="ellipse25" />
      <text
         text-anchor="middle"
         x="268"
         y="-244.95"
         font-family="Times, serif"
         font-size="14px"
         id="text25">SingleVariableDeclaration</text>
    </g>
    <!-- n_src_11&#45;&gt;n_src_7 -->
    <g
       id="edge8"
       class="edge">
      <title
         id="title26">n_src_11-&gt;n_src_7</title>
      <path
         fill="none"
         stroke="#000000"
         d="m 136.09,-305.64 c 24.17,10.01 55.98,23.19 82.31,34.1"
         id="path26" />
      <polygon
         fill="#000000"
         stroke="#000000"
         points="227.54,-267.76 216.97,-268.35 219.64,-274.82 "
         id="polygon26" />
    </g>
    <!-- n_src_10 -->
    <g
       id="node12"
       class="node">
      <title
         id="title27">n_src_10</title>
      <ellipse
         fill="#d3d3d3"
         stroke="#d3d3d3"
         cx="99"
         cy="-250"
         rx="32.93"
         ry="18"
         id="ellipse27" />
      <text
         text-anchor="middle"
         x="99"
         y="-244.95"
         font-family="Times, serif"
         font-size="14px"
         id="text27">Block</text>
    </g>
    <!-- n_src_11&#45;&gt;n_src_10 -->
    <g
       id="edge11"
       class="edge">
      <title
         id="title28">n_src_11-&gt;n_src_10</title>
      <path
         fill="none"
         stroke="#000000"
         d="m 99,-303.7 c 0,7.29 0,15.97 0,24.16"
         id="path28" />
      <polygon
         fill="#000000"
         stroke="#000000"
         points="99,-269.62 95.5,-279.62 102.5,-279.62 "
         id="polygon28" />
    </g>
    <!-- n_dst_11 -->
    <g
       id="node19"
       class="node">
      <title
         id="title29">n_dst_11</title>
      <ellipse
         fill="#d3d3d3"
         stroke="#d3d3d3"
         cx="794"
         cy="-250"
         rx="83.080002"
         ry="18"
         id="ellipse29" />
      <text
         text-anchor="middle"
         x="794"
         y="-244.95"
         font-family="Times, serif"
         font-size="14px"
         id="text29">MethodDeclaration</text>
    </g>
    <!-- n_src_11&#45;&gt;n_dst_11 -->
    <g
       id="edge29"
       class="edge">
      <title
         id="title30">n_src_11-&gt;n_dst_11</title>
      <path
         fill="none"
         stroke="#000000"
         stroke-dasharray="5, 2"
         d="m 158.23,-309.05 c 10.87,1.91 22.14,3.7 32.77,5.05 224.53,28.61 283.39,8.03 508,36 7.68,0.96 15.69,2.12 23.65,3.39"
         id="path30" />
      <polygon
         fill="#000000"
         stroke="#000000"
         points="732.35,-263.01 721.91,-261.18 723.05,-268.09 "
         id="polygon30" />
    </g>
    <!-- n_src_2 -->
    <g
       id="node7"
       class="node">
      <title
         id="title31">n_src_2</title>
      <ellipse
         fill="#d3d3d3"
         stroke="#d3d3d3"
         cx="599"
         cy="-178"
         rx="87.690002"
         ry="18"
         id="ellipse31" />
      <text
         text-anchor="middle"
         x="599"
         y="-172.95"
         font-family="Times, serif"
         font-size="14px"
         id="text31">SimpleName: String</text>
    </g>
    <!-- n_src_3&#45;&gt;n_src_2 -->
    <g
       id="edge6"
       class="edge">
      <title
         id="title32">n_src_3-&gt;n_src_2</title>
      <path
         fill="none"
         stroke="#000000"
         d="m 487.56,-234.33 c 19.94,9.9 46.56,23.12 68.78,34.15"
         id="path32" />
      <polygon
         fill="#000000"
         stroke="#000000"
         points="565.17,-195.79 554.66,-197.11 557.77,-203.38 "
         id="polygon32" />
    </g>
    <!-- n_dst_3 -->
    <g
       id="node20"
       class="node">
      <title
         id="title33">n_dst_3</title>
      <ellipse
         fill="#d3d3d3"
         stroke="#d3d3d3"
         cx="1240"
         cy="-178"
         rx="56.470001"
         ry="18"
         id="ellipse33" />
      <text
         text-anchor="middle"
         x="1240"
         y="-172.95"
         font-family="Times, serif"
         font-size="14px"
         id="text33">SimpleType</text>
    </g>
    <!-- n_src_3&#45;&gt;n_dst_3 -->
    <g
       id="edge28"
       class="edge">
      <title
         id="title34">n_src_3-&gt;n_dst_3</title>
      <path
         fill="none"
         stroke="#000000"
         stroke-dasharray="5, 2"
         d="m 498.58,-237.21 c 8.34,2.04 17.12,3.92 25.42,5.21 285.92,44.3 364.08,-8.3 650,36 4.67,0.72 9.49,1.64 14.3,2.66"
         id="path34" />
      <polygon
         fill="#000000"
         stroke="#000000"
         points="1197.95,-191.13 1187.42,-189.95 1188.98,-196.78 "
         id="polygon34" />
    </g>
    <!-- n_dst_2 -->
    <g
       id="node21"
       class="node">
      <title
         id="title35">n_dst_2</title>
      <ellipse
         fill="#ffa500"
         stroke="#ffa500"
         cx="1547"
         cy="-106"
         rx="137.85001"
         ry="18"
         id="ellipse35" />
      <text
         text-anchor="middle"
         x="1547"
         y="-100.95"
         font-family="Times, serif"
         font-size="14px"
         id="text35">SimpleName_SimpleType: String</text>
    </g>
    <!-- n_src_2&#45;&gt;n_dst_2 -->
    <g
       id="edge31"
       class="edge">
      <title
         id="title36">n_src_2-&gt;n_dst_2</title>
      <path
         fill="none"
         stroke="#000000"
         stroke-dasharray="5, 2"
         d="m 662.06,-165.13 c 12.22,1.98 24.95,3.81 36.94,5.13 310.53,34.24 390.68,9.92 702,36 12.29,1.03 25.15,2.28 37.92,3.62"
         id="path36" />
      <polygon
         fill="#000000"
         stroke="#000000"
         points="1448.59,-119.34 1438.28,-116.93 1439.03,-123.89 "
         id="polygon36" />
    </g>
    <!-- n_dst_4 -->
    <g
       id="node22"
       class="node">
      <title
         id="title37">n_dst_4</title>
      <ellipse
         fill="#ffa500"
         stroke="#ffa500"
         cx="1423"
         cy="-178"
         rx="108.67"
         ry="18"
         id="ellipse37" />
      <text
         text-anchor="middle"
         x="1423"
         y="-172.95"
         font-family="Times, serif"
         font-size="14px"
         id="text37">SimpleName_MethodDec</text>
    </g>
    <!-- n_src_4&#45;&gt;n_dst_4 -->
    <g
       id="edge32"
       class="edge">
      <title
         id="title38">n_src_4-&gt;n_dst_4</title>
      <path
         fill="none"
         stroke="#000000"
         stroke-dasharray="5, 2"
         d="m 665.85,-237.19 c 10.95,1.99 22.38,3.85 33.15,5.19 267.74,33.38 337.57,8.74 606,36 9.65,0.98 19.72,2.17 29.74,3.46"
         id="path38" />
      <polygon
         fill="#000000"
         stroke="#000000"
         points="1344.49,-191.24 1334.12,-189.09 1335.04,-196.03 "
         id="polygon38" />
    </g>
    <!-- n_src_5 -->
    <g
       id="node10"
       class="node">
      <title
         id="title39">n_src_5</title>
      <ellipse
         fill="#d3d3d3"
         stroke="#d3d3d3"
         cx="261"
         cy="-178"
         rx="79.5"
         ry="18"
         id="ellipse39" />
      <text
         text-anchor="middle"
         x="261"
         y="-172.95"
         font-family="Times, serif"
         font-size="14px"
         id="text39">PrimitiveType: int</text>
    </g>
    <!-- n_src_7&#45;&gt;n_src_5 -->
    <g
       id="edge9"
       class="edge">
      <title
         id="title40">n_src_7-&gt;n_src_5</title>
      <path
         fill="none"
         stroke="#000000"
         d="m 266.27,-231.7 c -0.73,7.29 -1.6,15.97 -2.42,24.16"
         id="path40" />
      <polygon
         fill="#000000"
         stroke="#000000"
         points="262.86,-197.61 260.37,-207.91 267.34,-207.21 "
         id="polygon40" />
    </g>
    <!-- n_src_6 -->
    <g
       id="node11"
       class="node">
      <title
         id="title41">n_src_6</title>
      <ellipse
         fill="#d3d3d3"
         stroke="#d3d3d3"
         cx="426"
         cy="-178"
         rx="67.730003"
         ry="18"
         id="ellipse41" />
      <text
         text-anchor="middle"
         x="426"
         y="-172.95"
         font-family="Times, serif"
         font-size="14px"
         id="text41">SimpleName: i</text>
    </g>
    <!-- n_src_7&#45;&gt;n_src_6 -->
    <g
       id="edge10"
       class="edge">
      <title
         id="title42">n_src_7-&gt;n_src_6</title>
      <path
         fill="none"
         stroke="#000000"
         d="m 304.65,-232.76 c 23.02,10.2 52.87,23.42 77.2,34.2"
         id="path42" />
      <polygon
         fill="#000000"
         stroke="#000000"
         points="390.87,-194.57 380.31,-195.42 383.14,-201.82 "
         id="polygon42" />
    </g>
    <!-- n_dst_7 -->
    <g
       id="node23"
       class="node">
      <title
         id="title43">n_dst_7</title>
      <ellipse
         fill="#d3d3d3"
         stroke="#d3d3d3"
         cx="1057"
         cy="-178"
         rx="108.16"
         ry="18"
         id="ellipse43" />
      <text
         text-anchor="middle"
         x="1057"
         y="-172.95"
         font-family="Times, serif"
         font-size="14px"
         id="text43">SingleVariableDeclaration</text>
    </g>
    <!-- n_src_7&#45;&gt;n_dst_7 -->
    <g
       id="edge39"
       class="edge">
      <title
         id="title44">n_src_7-&gt;n_dst_7</title>
      <path
         fill="none"
         stroke="#000000"
         stroke-dasharray="5, 2"
         d="m 347.25,-237.38 c 15.17,1.99 30.93,3.89 45.75,5.38 242.41,24.43 304.7,10.46 547,36 9.39,0.99 19.18,2.17 28.93,3.45"
         id="path44" />
      <polygon
         fill="#000000"
         stroke="#000000"
         points="978.83,-191.22 968.45,-189.09 969.38,-196.02 "
         id="polygon44" />
    </g>
    <!-- n_dst_5 -->
    <g
       id="node24"
       class="node">
      <title
         id="title45">n_dst_5</title>
      <ellipse
         fill="#d3d3d3"
         stroke="#d3d3d3"
         cx="955"
         cy="-106"
         rx="79.5"
         ry="18"
         id="ellipse45" />
      <text
         text-anchor="middle"
         x="955"
         y="-100.95"
         font-family="Times, serif"
         font-size="14px"
         id="text45">PrimitiveType: int</text>
    </g>
    <!-- n_src_5&#45;&gt;n_dst_5 -->
    <g
       id="edge30"
       class="edge">
      <title
         id="title46">n_src_5-&gt;n_dst_5</title>
      <path
         fill="none"
         stroke="#000000"
         stroke-dasharray="5, 2"
         d="m 317.64,-165.01 c 10.4,1.9 21.18,3.68 31.36,5.01 228.39,29.9 288.58,6.34 517,36 6.86,0.89 13.99,1.98 21.09,3.17"
         id="path46" />
      <polygon
         fill="#000000"
         stroke="#000000"
         points="896.7,-119.16 886.24,-117.43 887.45,-124.33 "
         id="polygon46" />
    </g>
    <!-- n_dst_6 -->
    <g
       id="node25"
       class="node">
      <title
         id="title47">n_dst_6</title>
      <ellipse
         fill="#ffa500"
         stroke="#ffa500"
         cx="1222"
         cy="-106"
         rx="169.58"
         ry="18"
         id="ellipse47" />
      <text
         text-anchor="middle"
         x="1222"
         y="-100.95"
         font-family="Times, serif"
         font-size="14px"
         id="text47">SimpleName_SingleVariableDeclaration: i</text>
    </g>
    <!-- n_src_6&#45;&gt;n_dst_6 -->
    <g
       id="edge36"
       class="edge">
      <title
         id="title48">n_src_6-&gt;n_dst_6</title>
      <path
         fill="none"
         stroke="#000000"
         stroke-dasharray="5, 2"
         d="m 474.45,-165 c 9.11,1.93 18.58,3.71 27.55,5 238.95,34.45 301.37,16.52 542,36 14.94,1.21 30.57,2.57 46.11,3.97"
         id="path48" />
      <polygon
         fill="#000000"
         stroke="#000000"
         points="1099.89,-119.13 1089.61,-116.56 1090.25,-123.53 "
         id="polygon48" />
    </g>
    <!-- n_src_9 -->
    <g
       id="node13"
       class="node">
      <title
         id="title49">n_src_9</title>
      <ellipse
         fill="#d3d3d3"
         stroke="#d3d3d3"
         cx="90"
         cy="-178"
         rx="73.360001"
         ry="18"
         id="ellipse49" />
      <text
         text-anchor="middle"
         x="90"
         y="-172.95"
         font-family="Times, serif"
         font-size="14px"
         id="text49">ReturnStatement</text>
    </g>
    <!-- n_src_10&#45;&gt;n_src_9 -->
    <g
       id="edge12"
       class="edge">
      <title
         id="title50">n_src_10-&gt;n_src_9</title>
      <path
         fill="none"
         stroke="#000000"
         d="m 96.78,-231.7 c -0.95,7.38 -2.08,16.18 -3.15,24.45"
         id="path50" />
      <polygon
         fill="#000000"
         stroke="#000000"
         points="92.39,-197.61 90.2,-207.97 97.14,-207.08 "
         id="polygon50" />
    </g>
    <!-- n_dst_10 -->
    <g
       id="node26"
       class="node">
      <title
         id="title51">n_dst_10</title>
      <ellipse
         fill="#ffa500"
         stroke="#ffa500"
         cx="821"
         cy="-178"
         rx="109.7"
         ry="18"
         id="ellipse51" />
      <text
         text-anchor="middle"
         x="821"
         y="-172.95"
         font-family="Times, serif"
         font-size="14px"
         id="text51">Block_MethodDeclaration</text>
    </g>
    <!-- n_src_10&#45;&gt;n_dst_10 -->
    <g
       id="edge33"
       class="edge">
      <title
         id="title52">n_src_10-&gt;n_dst_10</title>
      <path
         fill="none"
         stroke="#000000"
         stroke-dasharray="5, 2"
         d="m 125.65,-238.87 c 8.04,2.67 16.96,5.25 25.35,6.87 239.65,46.28 305.19,11.14 548,36 10.34,1.06 21.16,2.33 31.89,3.69"
         id="path52" />
      <polygon
         fill="#000000"
         stroke="#000000"
         points="740.52,-191.06 730.15,-188.88 731.06,-195.82 "
         id="polygon52" />
    </g>
    <!-- n_src_8 -->
    <g
       id="node14"
       class="node">
      <title
         id="title53">n_src_8</title>
      <ellipse
         fill="#d3d3d3"
         stroke="#d3d3d3"
         cx="351"
         cy="-106"
         rx="77.970001"
         ry="18"
         id="ellipse53" />
      <text
         text-anchor="middle"
         x="351"
         y="-100.95"
         font-family="Times, serif"
         font-size="14px"
         id="text53">StringLiteral:Foo!</text>
    </g>
    <!-- n_src_9&#45;&gt;n_src_8 -->
    <g
       id="edge13"
       class="edge">
      <title
         id="title54">n_src_9-&gt;n_src_8</title>
      <path
         fill="none"
         stroke="#000000"
         d="m 138.18,-164.08 c 42.86,11.5 105.75,28.36 152.06,40.78"
         id="path54" />
      <polygon
         fill="#000000"
         stroke="#000000"
         points="299.87,-120.71 289.3,-119.92 291.12,-126.68 "
         id="polygon54" />
    </g>
    <!-- n_dst_9 -->
    <g
       id="node27"
       class="node">
      <title
         id="title55">n_dst_9</title>
      <ellipse
         fill="#d3d3d3"
         stroke="#d3d3d3"
         cx="784"
         cy="-106"
         rx="73.360001"
         ry="18"
         id="ellipse55" />
      <text
         text-anchor="middle"
         x="784"
         y="-100.95"
         font-family="Times, serif"
         font-size="14px"
         id="text55">ReturnStatement</text>
    </g>
    <!-- n_src_9&#45;&gt;n_dst_9 -->
    <g
       id="edge38"
       class="edge">
      <title
         id="title56">n_src_9-&gt;n_dst_9</title>
      <path
         fill="none"
         stroke="#000000"
         stroke-dasharray="5, 2"
         d="m 142.31,-165.05 c 9.82,1.93 20.04,3.73 29.69,5.05 232.59,31.9 294.3,4.91 527,36 6.75,0.9 13.78,2.02 20.77,3.24"
         id="path56" />
      <polygon
         fill="#000000"
         stroke="#000000"
         points="729.18,-119.03 718.72,-117.39 719.98,-124.28 "
         id="polygon56" />
    </g>
    <!-- n_dst_8 -->
    <g
       id="node28"
       class="node">
      <title
         id="title57">n_dst_8</title>
      <ellipse
         fill="#d3d3d3"
         stroke="#d3d3d3"
         cx="789"
         cy="-34"
         rx="77.970001"
         ry="18"
         id="ellipse57" />
      <text
         text-anchor="middle"
         x="789"
         y="-28.950001"
         font-family="Times, serif"
         font-size="14px"
         id="text57">StringLiteral:Foo!</text>
    </g>
    <!-- n_src_8&#45;&gt;n_dst_8 -->
    <g
       id="edge37"
       class="edge">
      <title
         id="title58">n_src_8-&gt;n_dst_8</title>
      <path
         fill="none"
         stroke="#000000"
         stroke-dasharray="5, 2"
         d="m 413.75,-94.97 c 79.61,12.72 216.68,34.63 301.29,48.15"
         id="path58" />
      <polygon
         fill="#000000"
         stroke="#000000"
         points="724.87,-45.25 714.44,-43.37 715.54,-50.28 "
         id="polygon58" />
    </g>
    <!-- n_dst_13&#45;&gt;n_dst_12 -->
    <g
       id="edge14"
       class="edge">
      <title
         id="title59">n_dst_13-&gt;n_dst_12</title>
      <path
         fill="none"
         stroke="#000000"
         d="m 790.99,-375.7 c 0.42,7.29 0.91,15.97 1.38,24.16"
         id="path59" />
      <polygon
         fill="#000000"
         stroke="#000000"
         points="792.94,-341.62 788.87,-351.4 795.86,-351.8 "
         id="polygon59" />
    </g>
    <!-- n_dst_12&#45;&gt;n_dst_0 -->
    <g
       id="edge15"
       class="edge">
      <title
         id="title60">n_dst_12-&gt;n_dst_0</title>
      <path
         fill="none"
         stroke="#000000"
         d="m 856.93,-312.63 c 87.17,11.61 246.02,32.74 353.05,46.99"
         id="path60" />
      <polygon
         fill="#000000"
         stroke="#000000"
         points="1219.64,-264.36 1209.27,-262.21 1210.19,-269.14 "
         id="polygon60" />
    </g>
    <!-- n_dst_12&#45;&gt;n_dst_1 -->
    <g
       id="edge16"
       class="edge">
      <title
         id="title61">n_dst_12-&gt;n_dst_1</title>
      <path
         fill="none"
         stroke="#000000"
         d="m 838.5,-307.34 c 34.59,10.62 82.98,25.48 121.39,37.27"
         id="path61" />
      <polygon
         fill="#000000"
         stroke="#000000"
         points="968.99,-267.28 958.4,-266.86 960.46,-273.56 "
         id="polygon61" />
    </g>
    <!-- n_dst_12&#45;&gt;n_dst_11 -->
    <g
       id="edge17"
       class="edge">
      <title
         id="title62">n_dst_12-&gt;n_dst_11</title>
      <path
         fill="none"
         stroke="#000000"
         d="m 794,-303.7 c 0,7.29 0,15.97 0,24.16"
         id="path62" />
      <polygon
         fill="#000000"
         stroke="#000000"
         points="794,-269.62 790.5,-279.62 797.5,-279.62 "
         id="polygon62" />
    </g>
    <!-- n_dst_11&#45;&gt;n_dst_3 -->
    <g
       id="edge18"
       class="edge">
      <title
         id="title63">n_dst_11-&gt;n_dst_3</title>
      <path
         fill="none"
         stroke="#000000"
         d="m 854.29,-237.34 c 10.55,1.89 21.44,3.75 31.71,5.34 127.48,19.73 161.28,11.86 288,36 4.39,0.84 8.91,1.79 13.44,2.82"
         id="path63" />
      <polygon
         fill="#000000"
         stroke="#000000"
         points="1197.17,-190.87 1186.63,-189.78 1188.25,-196.59 "
         id="polygon63" />
    </g>
    <!-- n_dst_11&#45;&gt;n_dst_4 -->
    <g
       id="edge20"
       class="edge">
      <title
         id="title64">n_dst_11-&gt;n_dst_4</title>
      <path
         fill="none"
         stroke="#000000"
         d="m 853.75,-237.09 c 10.71,1.89 21.79,3.68 32.25,5.09 185.23,25.01 233.31,14.67 419,36 9.31,1.07 19.02,2.29 28.69,3.58"
         id="path64" />
      <polygon
         fill="#000000"
         stroke="#000000"
         points="1343.51,-191.08 1333.13,-188.96 1334.07,-195.9 "
         id="polygon64" />
    </g>
    <!-- n_dst_11&#45;&gt;n_dst_7 -->
    <g
       id="edge21"
       class="edge">
      <title
         id="title65">n_dst_11-&gt;n_dst_7</title>
      <path
         fill="none"
         stroke="#000000"
         d="m 845.02,-235.42 c 41.54,11.06 100.48,26.74 145.68,38.77"
         id="path65" />
      <polygon
         fill="#000000"
         stroke="#000000"
         points="1000.12,-194.14 989.55,-193.33 991.35,-200.09 "
         id="polygon65" />
    </g>
    <!-- n_dst_11&#45;&gt;n_dst_10 -->
    <g
       id="edge24"
       class="edge">
      <title
         id="title66">n_dst_11-&gt;n_dst_10</title>
      <path
         fill="none"
         stroke="#000000"
         d="m 800.67,-231.7 c 2.91,7.55 6.4,16.58 9.65,25.02"
         id="path66" />
      <polygon
         fill="#000000"
         stroke="#000000"
         points="813.86,-197.52 806.99,-205.59 813.52,-208.11 "
         id="polygon66" />
    </g>
    <!-- n_dst_3&#45;&gt;n_dst_2 -->
    <g
       id="edge19"
       class="edge">
      <title
         id="title67">n_dst_3-&gt;n_dst_2</title>
      <path
         fill="none"
         stroke="#000000"
         d="m 1282.25,-165.69 c 7.56,1.95 15.38,3.92 22.75,5.69 52.94,12.72 112.71,25.82 159.6,35.81"
         id="path67" />
      <polygon
         fill="#000000"
         stroke="#000000"
         points="1474.14,-122.16 1463.63,-120.82 1465.08,-127.66 "
         id="polygon67" />
    </g>
    <!-- n_dst_7&#45;&gt;n_dst_5 -->
    <g
       id="edge22"
       class="edge">
      <title
         id="title68">n_dst_7-&gt;n_dst_5</title>
      <path
         fill="none"
         stroke="#000000"
         d="m 1032.31,-160.05 c -13.13,9 -29.45,20.21 -43.72,30"
         id="path68" />
      <polygon
         fill="#000000"
         stroke="#000000"
         points="980.36,-124.4 986.62,-132.95 990.59,-127.18 "
         id="polygon68" />
    </g>
    <!-- n_dst_7&#45;&gt;n_dst_6 -->
    <g
       id="edge23"
       class="edge">
      <title
         id="title69">n_dst_7-&gt;n_dst_6</title>
      <path
         fill="none"
         stroke="#000000"
         d="m 1095.27,-160.76 c 22.72,9.64 51.8,21.97 76.37,32.39"
         id="path69" />
      <polygon
         fill="#000000"
         stroke="#000000"
         points="1180.82,-124.47 1170.25,-125.15 1172.98,-131.6 "
         id="polygon69" />
    </g>
    <!-- n_dst_10&#45;&gt;n_dst_9 -->
    <g
       id="edge25"
       class="edge">
      <title
         id="title70">n_dst_10-&gt;n_dst_9</title>
      <path
         fill="none"
         stroke="#000000"
         d="m 811.85,-159.7 c -4.07,7.72 -8.97,16.99 -13.52,25.59"
         id="path70" />
      <polygon
         fill="#000000"
         stroke="#000000"
         points="793.75,-125.44 795.33,-135.92 801.52,-132.65 "
         id="polygon70" />
    </g>
    <!-- n_dst_9&#45;&gt;n_dst_8 -->
    <g
       id="edge26"
       class="edge">
      <title
         id="title71">n_dst_9-&gt;n_dst_8</title>
      <path
         fill="none"
         stroke="#000000"
         d="m 785.24,-87.7 c 0.52,7.29 1.14,15.97 1.72,24.16"
         id="path71" />
      <polygon
         fill="#000000"
         stroke="#000000"
         points="787.67,-53.61 783.47,-63.34 790.45,-63.84 "
         id="polygon71" />
    </g>
  </g>
</svg>
