<?xml version="1.0" encoding="UTF-8" standalone="no"?>
<!DOCTYPE svg PUBLIC "-//W3C//DTD SVG 1.1//EN"
 "http://www.w3.org/Graphics/SVG/1.1/DTD/svg11.dtd">
<!-- Generated by graphviz version 12.2.1 (20241206.2353)
 -->
<!-- Title: G Pages: 1 -->
<svg width="1572pt" height="508pt"
 viewBox="0.00 0.00 1572.00 508.00" xmlns="http://www.w3.org/2000/svg" xmlns:xlink="http://www.w3.org/1999/xlink">
<g id="graph0" class="graph" transform="scale(1 1) rotate(0) translate(4 504)">
<title>G</title>
<polygon fill="white" stroke="none" points="-4,4 -4,-504 1568,-504 1568,4 -4,4"/>
<g id="clust1" class="cluster">
<title>cluster_src </title>
<polygon fill="none" stroke="black" points="8,-80 8,-492 695,-492 695,-80 8,-80"/>
</g>
<g id="clust2" class="cluster">
<title>cluster_dst </title>
<polygon fill="none" stroke="black" points="703,-8 703,-420 1556,-420 1556,-8 703,-8"/>
</g>
<!-- n_src_13 -->
<g id="node1" class="node">
<title>n_src_13</title>
<ellipse fill="lightgrey" stroke="lightgrey" cx="573" cy="-466" rx="73.87" ry="18"/>
<text text-anchor="middle" x="573" y="-460.95" font-family="Times,serif" font-size="14.00">CompilationUnit</text>
</g>
<!-- n_src_12 -->
<g id="node2" class="node">
<title>n_src_12</title>
<ellipse fill="lightgrey" stroke="lightgrey" cx="533" cy="-394" rx="72.85" ry="18"/>
<text text-anchor="middle" x="533" y="-388.95" font-family="Times,serif" font-size="14.00">TypeDeclaration</text>
</g>
<!-- n_src_13&#45;&gt;n_src_12 -->
<g id="edge1" class="edge">
<title>n_src_13&#45;&gt;n_src_12</title>
<path fill="none" stroke="black" d="M563.11,-447.7C558.66,-439.9 553.29,-430.51 548.33,-421.83"/>
<polygon fill="black" stroke="black" points="551.53,-420.36 543.52,-413.42 545.45,-423.84 551.53,-420.36"/>
</g>
<!-- n_dst_13 -->
<g id="node15" class="node">
<title>n_dst_13</title>
<ellipse fill="lightgrey" stroke="lightgrey" cx="790" cy="-394" rx="73.87" ry="18"/>
<text text-anchor="middle" x="790" y="-388.95" font-family="Times,serif" font-size="14.00">CompilationUnit</text>
</g>
<!-- n_src_13&#45;&gt;n_dst_13 -->
<g id="edge29" class="edge">
<title>n_src_13&#45;&gt;n_dst_13</title>
<path fill="none" stroke="black" stroke-dasharray="5,2" d="M616.39,-451C650.84,-439.89 699.18,-424.3 736.11,-412.39"/>
<polygon fill="black" stroke="black" points="736.8,-415.84 745.24,-409.44 734.65,-409.18 736.8,-415.84"/>
</g>
<!-- n_src_0 -->
<g id="node3" class="node">
<title>n_src_0</title>
<ellipse fill="lightgrey" stroke="lightgrey" cx="533" cy="-322" rx="153.71" ry="18"/>
<text text-anchor="middle" x="533" y="-316.95" font-family="Times,serif" font-size="14.00">TYPE_DECLARATION_KIND: class</text>
</g>
<!-- n_src_12&#45;&gt;n_src_0 -->
<g id="edge2" class="edge">
<title>n_src_12&#45;&gt;n_src_0</title>
<path fill="none" stroke="black" d="M533,-375.7C533,-368.41 533,-359.73 533,-351.54"/>
<polygon fill="black" stroke="black" points="536.5,-351.62 533,-341.62 529.5,-351.62 536.5,-351.62"/>
</g>
<!-- n_src_1 -->
<g id="node4" class="node">
<title>n_src_1</title>
<ellipse fill="lightgrey" stroke="lightgrey" cx="281" cy="-322" rx="80.52" ry="18"/>
<text text-anchor="middle" x="281" y="-316.95" font-family="Times,serif" font-size="14.00">SimpleName: Test</text>
</g>
<!-- n_src_12&#45;&gt;n_src_1 -->
<g id="edge3" class="edge">
<title>n_src_12&#45;&gt;n_src_1</title>
<path fill="none" stroke="black" d="M485.9,-379.92C444.92,-368.53 385.32,-351.98 340.95,-339.65"/>
<polygon fill="black" stroke="black" points="342.05,-336.33 331.48,-337.02 340.18,-343.07 342.05,-336.33"/>
</g>
<!-- n_src_11 -->
<g id="node5" class="node">
<title>n_src_11</title>
<ellipse fill="lightgrey" stroke="lightgrey" cx="99" cy="-322" rx="83.08" ry="18"/>
<text text-anchor="middle" x="99" y="-316.95" font-family="Times,serif" font-size="14.00">MethodDeclaration</text>
</g>
<!-- n_src_12&#45;&gt;n_src_11 -->
<g id="edge4" class="edge">
<title>n_src_12&#45;&gt;n_src_11</title>
<path fill="none" stroke="black" d="M471.44,-384.01C402.9,-373.87 288.89,-356.63 191,-340 184.54,-338.9 177.83,-337.73 171.1,-336.53"/>
<polygon fill="black" stroke="black" points="171.78,-333.09 161.31,-334.76 170.54,-339.98 171.78,-333.09"/>
</g>
<!-- n_dst_12 -->
<g id="node16" class="node">
<title>n_dst_12</title>
<ellipse fill="lightgrey" stroke="lightgrey" cx="794" cy="-322" rx="72.85" ry="18"/>
<text text-anchor="middle" x="794" y="-316.95" font-family="Times,serif" font-size="14.00">TypeDeclaration</text>
</g>
<!-- n_src_12&#45;&gt;n_dst_12 -->
<g id="edge31" class="edge">
<title>n_src_12&#45;&gt;n_dst_12</title>
<path fill="none" stroke="black" stroke-dasharray="5,2" d="M581.18,-380.08C624.58,-368.44 688.53,-351.29 734.99,-338.83"/>
<polygon fill="black" stroke="black" points="735.89,-342.21 744.64,-336.24 734.08,-335.45 735.89,-342.21"/>
</g>
<!-- n_dst_0 -->
<g id="node17" class="node">
<title>n_dst_0</title>
<ellipse fill="lightgrey" stroke="lightgrey" cx="1320" cy="-250" rx="153.71" ry="18"/>
<text text-anchor="middle" x="1320" y="-244.95" font-family="Times,serif" font-size="14.00">TYPE_DECLARATION_KIND: class</text>
</g>
<!-- n_src_0&#45;&gt;n_dst_0 -->
<g id="edge40" class="edge">
<title>n_src_0&#45;&gt;n_dst_0</title>
<path fill="none" stroke="black" stroke-dasharray="5,2" d="M644.13,-309.25C662.46,-307.42 681.26,-305.6 699,-304 902.8,-285.58 954.23,-286.68 1158,-268 1171.33,-266.78 1185.27,-265.43 1199.14,-264.03"/>
<polygon fill="black" stroke="black" points="1199.14,-267.55 1208.73,-263.06 1198.43,-260.59 1199.14,-267.55"/>
</g>
<!-- n_dst_1 -->
<g id="node18" class="node">
<title>n_dst_1</title>
<ellipse fill="yellow" stroke="yellow" cx="1022" cy="-250" rx="126.59" ry="18"/>
<text text-anchor="middle" x="1022" y="-244.95" font-family="Times,serif" font-size="14.00">SimpleName_TypeDeclaration</text>
</g>
<!-- n_src_1&#45;&gt;n_dst_1 -->
<g id="edge37" class="edge">
<title>n_src_1&#45;&gt;n_dst_1</title>
<path fill="none" stroke="black" stroke-dasharray="5,2" d="M338.29,-309.02C348.8,-307.12 359.7,-305.34 370,-304 597.97,-274.38 657.19,-290.27 886,-268 897.22,-266.91 908.94,-265.64 920.59,-264.29"/>
<polygon fill="black" stroke="black" points="920.7,-267.81 930.23,-263.16 919.89,-260.85 920.7,-267.81"/>
</g>
<!-- n_src_3 -->
<g id="node6" class="node">
<title>n_src_3</title>
<ellipse fill="lightgrey" stroke="lightgrey" cx="458" cy="-250" rx="56.47" ry="18"/>
<text text-anchor="middle" x="458" y="-244.95" font-family="Times,serif" font-size="14.00">SimpleType</text>
</g>
<!-- n_src_11&#45;&gt;n_src_3 -->
<g id="edge5" class="edge">
<title>n_src_11&#45;&gt;n_src_3</title>
<path fill="none" stroke="black" d="M160.59,-309.62C243,-294.39 379.49,-269.15 385,-268 390.89,-266.77 397.04,-265.43 403.15,-264.06"/>
<polygon fill="black" stroke="black" points="403.62,-267.54 412.59,-261.91 402.06,-260.72 403.62,-267.54"/>
</g>
<!-- n_src_4 -->
<g id="node8" class="node">
<title>n_src_4</title>
<ellipse fill="lightgrey" stroke="lightgrey" cx="610" cy="-250" rx="77.45" ry="18"/>
<text text-anchor="middle" x="610" y="-244.95" font-family="Times,serif" font-size="14.00">SimpleName: foo</text>
</g>
<!-- n_src_11&#45;&gt;n_src_4 -->
<g id="edge7" class="edge">
<title>n_src_11&#45;&gt;n_src_4</title>
<path fill="none" stroke="black" d="M159.27,-309.2C169.82,-307.32 180.71,-305.51 191,-304 337.86,-282.5 376.26,-290.25 523,-268 529.43,-267.02 536.12,-265.91 542.79,-264.72"/>
<polygon fill="black" stroke="black" points="543.27,-268.19 552.47,-262.95 542.01,-261.31 543.27,-268.19"/>
</g>
<!-- n_src_7 -->
<g id="node9" class="node">
<title>n_src_7</title>
<ellipse fill="lightgrey" stroke="lightgrey" cx="268" cy="-250" rx="108.16" ry="18"/>
<text text-anchor="middle" x="268" y="-244.95" font-family="Times,serif" font-size="14.00">SingleVariableDeclaration</text>
</g>
<!-- n_src_11&#45;&gt;n_src_7 -->
<g id="edge8" class="edge">
<title>n_src_11&#45;&gt;n_src_7</title>
<path fill="none" stroke="black" d="M136.09,-305.64C160.26,-295.63 192.07,-282.45 218.4,-271.54"/>
<polygon fill="black" stroke="black" points="219.64,-274.82 227.54,-267.76 216.97,-268.35 219.64,-274.82"/>
</g>
<!-- n_src_10 -->
<g id="node12" class="node">
<title>n_src_10</title>
<ellipse fill="lightgrey" stroke="lightgrey" cx="99" cy="-250" rx="32.93" ry="18"/>
<text text-anchor="middle" x="99" y="-244.95" font-family="Times,serif" font-size="14.00">Block</text>
</g>
<!-- n_src_11&#45;&gt;n_src_10 -->
<g id="edge11" class="edge">
<title>n_src_11&#45;&gt;n_src_10</title>
<path fill="none" stroke="black" d="M99,-303.7C99,-296.41 99,-287.73 99,-279.54"/>
<polygon fill="black" stroke="black" points="102.5,-279.62 99,-269.62 95.5,-279.62 102.5,-279.62"/>
</g>
<!-- n_dst_11 -->
<g id="node19" class="node">
<title>n_dst_11</title>
<ellipse fill="lightgrey" stroke="lightgrey" cx="794" cy="-250" rx="83.08" ry="18"/>
<text text-anchor="middle" x="794" y="-244.95" font-family="Times,serif" font-size="14.00">MethodDeclaration</text>
</g>
<!-- n_src_11&#45;&gt;n_dst_11 -->
<g id="edge27" class="edge">
<title>n_src_11&#45;&gt;n_dst_11</title>
<path fill="none" stroke="black" stroke-dasharray="5,2" d="M158.23,-309.05C169.1,-307.14 180.37,-305.35 191,-304 415.53,-275.39 474.39,-295.97 699,-268 706.68,-267.04 714.69,-265.88 722.65,-264.61"/>
<polygon fill="black" stroke="black" points="723.05,-268.09 732.35,-263.01 721.91,-261.18 723.05,-268.09"/>
</g>
<!-- n_src_2 -->
<g id="node7" class="node">
<title>n_src_2</title>
<ellipse fill="lightgrey" stroke="lightgrey" cx="599" cy="-178" rx="87.69" ry="18"/>
<text text-anchor="middle" x="599" y="-172.95" font-family="Times,serif" font-size="14.00">SimpleName: String</text>
</g>
<!-- n_src_3&#45;&gt;n_src_2 -->
<g id="edge6" class="edge">
<title>n_src_3&#45;&gt;n_src_2</title>
<path fill="none" stroke="black" d="M487.56,-234.33C507.5,-224.43 534.12,-211.21 556.34,-200.18"/>
<polygon fill="black" stroke="black" points="557.77,-203.38 565.17,-195.79 554.66,-197.11 557.77,-203.38"/>
</g>
<!-- n_dst_3 -->
<g id="node20" class="node">
<title>n_dst_3</title>
<ellipse fill="lightgrey" stroke="lightgrey" cx="1240" cy="-178" rx="56.47" ry="18"/>
<text text-anchor="middle" x="1240" y="-172.95" font-family="Times,serif" font-size="14.00">SimpleType</text>
</g>
<!-- n_src_3&#45;&gt;n_dst_3 -->
<g id="edge36" class="edge">
<title>n_src_3&#45;&gt;n_dst_3</title>
<path fill="none" stroke="black" stroke-dasharray="5,2" d="M498.58,-237.21C506.92,-235.17 515.7,-233.29 524,-232 809.92,-187.7 888.08,-240.3 1174,-196 1178.67,-195.28 1183.49,-194.36 1188.3,-193.34"/>
<polygon fill="black" stroke="black" points="1188.98,-196.78 1197.95,-191.13 1187.42,-189.95 1188.98,-196.78"/>
</g>
<!-- n_dst_2 -->
<g id="node21" class="node">
<title>n_dst_2</title>
<ellipse fill="yellow" stroke="yellow" cx="1410" cy="-106" rx="137.85" ry="18"/>
<text text-anchor="middle" x="1410" y="-100.95" font-family="Times,serif" font-size="14.00">SimpleName_SimpleType: String</text>
</g>
<!-- n_src_2&#45;&gt;n_dst_2 -->
<g id="edge30" class="edge">
<title>n_src_2&#45;&gt;n_dst_2</title>
<path fill="none" stroke="black" stroke-dasharray="5,2" d="M662.34,-165.2C674.47,-163.24 687.11,-161.39 699,-160 948.49,-130.91 1012.83,-146.44 1263,-124 1275.27,-122.9 1288.1,-121.61 1300.85,-120.25"/>
<polygon fill="black" stroke="black" points="1300.95,-123.76 1310.52,-119.2 1300.2,-116.8 1300.95,-123.76"/>
</g>
<!-- n_dst_4 -->
<g id="node22" class="node">
<title>n_dst_4</title>
<ellipse fill="yellow" stroke="yellow" cx="1423" cy="-178" rx="108.67" ry="18"/>
<text text-anchor="middle" x="1423" y="-172.95" font-family="Times,serif" font-size="14.00">SimpleName_MethodDec</text>
</g>
<!-- n_src_4&#45;&gt;n_dst_4 -->
<g id="edge28" class="edge">
<title>n_src_4&#45;&gt;n_dst_4</title>
<path fill="none" stroke="black" stroke-dasharray="5,2" d="M665.85,-237.19C676.8,-235.2 688.23,-233.34 699,-232 966.74,-198.62 1036.57,-223.26 1305,-196 1314.65,-195.02 1324.72,-193.83 1334.74,-192.54"/>
<polygon fill="black" stroke="black" points="1335.04,-196.03 1344.49,-191.24 1334.12,-189.09 1335.04,-196.03"/>
</g>
<!-- n_src_5 -->
<g id="node10" class="node">
<title>n_src_5</title>
<ellipse fill="lightgrey" stroke="lightgrey" cx="261" cy="-178" rx="79.5" ry="18"/>
<text text-anchor="middle" x="261" y="-172.95" font-family="Times,serif" font-size="14.00">PrimitiveType: int</text>
</g>
<!-- n_src_7&#45;&gt;n_src_5 -->
<g id="edge9" class="edge">
<title>n_src_7&#45;&gt;n_src_5</title>
<path fill="none" stroke="black" d="M266.27,-231.7C265.54,-224.41 264.67,-215.73 263.85,-207.54"/>
<polygon fill="black" stroke="black" points="267.34,-207.21 262.86,-197.61 260.37,-207.91 267.34,-207.21"/>
</g>
<!-- n_src_6 -->
<g id="node11" class="node">
<title>n_src_6</title>
<ellipse fill="lightgrey" stroke="lightgrey" cx="426" cy="-178" rx="67.73" ry="18"/>
<text text-anchor="middle" x="426" y="-172.95" font-family="Times,serif" font-size="14.00">SimpleName: i</text>
</g>
<!-- n_src_7&#45;&gt;n_src_6 -->
<g id="edge10" class="edge">
<title>n_src_7&#45;&gt;n_src_6</title>
<path fill="none" stroke="black" d="M304.65,-232.76C327.67,-222.56 357.52,-209.34 381.85,-198.56"/>
<polygon fill="black" stroke="black" points="383.14,-201.82 390.87,-194.57 380.31,-195.42 383.14,-201.82"/>
</g>
<!-- n_dst_7 -->
<g id="node23" class="node">
<title>n_dst_7</title>
<ellipse fill="lightgrey" stroke="lightgrey" cx="1057" cy="-178" rx="108.16" ry="18"/>
<text text-anchor="middle" x="1057" y="-172.95" font-family="Times,serif" font-size="14.00">SingleVariableDeclaration</text>
</g>
<!-- n_src_7&#45;&gt;n_dst_7 -->
<g id="edge33" class="edge">
<title>n_src_7&#45;&gt;n_dst_7</title>
<path fill="none" stroke="black" stroke-dasharray="5,2" d="M347.25,-237.38C362.42,-235.39 378.18,-233.49 393,-232 635.41,-207.57 697.7,-221.54 940,-196 949.39,-195.01 959.18,-193.83 968.93,-192.55"/>
<polygon fill="black" stroke="black" points="969.38,-196.02 978.83,-191.22 968.45,-189.09 969.38,-196.02"/>
</g>
<!-- n_dst_5 -->
<g id="node24" class="node">
<title>n_dst_5</title>
<ellipse fill="lightgrey" stroke="lightgrey" cx="955" cy="-106" rx="79.5" ry="18"/>
<text text-anchor="middle" x="955" y="-100.95" font-family="Times,serif" font-size="14.00">PrimitiveType: int</text>
</g>
<!-- n_src_5&#45;&gt;n_dst_5 -->
<g id="edge34" class="edge">
<title>n_src_5&#45;&gt;n_dst_5</title>
<path fill="none" stroke="black" stroke-dasharray="5,2" d="M317.64,-165.01C328.04,-163.11 338.82,-161.33 349,-160 577.39,-130.1 637.58,-153.66 866,-124 872.86,-123.11 879.99,-122.02 887.09,-120.83"/>
<polygon fill="black" stroke="black" points="887.45,-124.33 896.7,-119.16 886.24,-117.43 887.45,-124.33"/>
</g>
<!-- n_dst_6 -->
<g id="node25" class="node">
<title>n_dst_6</title>
<ellipse fill="yellow" stroke="yellow" cx="1153" cy="-106" rx="101" ry="18"/>
<text text-anchor="middle" x="1153" y="-100.95" font-family="Times,serif" font-size="14.00">SimpleName_SingleVar</text>
</g>
<!-- n_src_6&#45;&gt;n_dst_6 -->
<g id="edge39" class="edge">
<title>n_src_6&#45;&gt;n_dst_6</title>
<path fill="none" stroke="black" stroke-dasharray="5,2" d="M474.45,-165C483.56,-163.07 493.03,-161.29 502,-160 740.95,-125.55 804.05,-150.63 1044,-124 1052.57,-123.05 1061.49,-121.91 1070.38,-120.67"/>
<polygon fill="black" stroke="black" points="1070.69,-124.16 1080.09,-119.28 1069.7,-117.23 1070.69,-124.16"/>
</g>
<!-- n_src_9 -->
<g id="node13" class="node">
<title>n_src_9</title>
<ellipse fill="lightgrey" stroke="lightgrey" cx="90" cy="-178" rx="73.36" ry="18"/>
<text text-anchor="middle" x="90" y="-172.95" font-family="Times,serif" font-size="14.00">ReturnStatement</text>
</g>
<!-- n_src_10&#45;&gt;n_src_9 -->
<g id="edge12" class="edge">
<title>n_src_10&#45;&gt;n_src_9</title>
<path fill="none" stroke="black" d="M96.78,-231.7C95.83,-224.32 94.7,-215.52 93.63,-207.25"/>
<polygon fill="black" stroke="black" points="97.14,-207.08 92.39,-197.61 90.2,-207.97 97.14,-207.08"/>
</g>
<!-- n_dst_10 -->
<g id="node26" class="node">
<title>n_dst_10</title>
<ellipse fill="orange" stroke="orange" cx="821" cy="-178" rx="109.7" ry="18"/>
<text text-anchor="middle" x="821" y="-172.95" font-family="Times,serif" font-size="14.00">Block_MethodDeclaration</text>
</g>
<!-- n_src_10&#45;&gt;n_dst_10 -->
<g id="edge32" class="edge">
<title>n_src_10&#45;&gt;n_dst_10</title>
<path fill="none" stroke="black" stroke-dasharray="5,2" d="M125.65,-238.87C133.69,-236.2 142.61,-233.62 151,-232 390.65,-185.72 456.19,-220.86 699,-196 709.34,-194.94 720.16,-193.67 730.89,-192.31"/>
<polygon fill="black" stroke="black" points="731.06,-195.82 740.52,-191.06 730.15,-188.88 731.06,-195.82"/>
</g>
<!-- n_src_8 -->
<g id="node14" class="node">
<title>n_src_8</title>
<ellipse fill="lightgrey" stroke="lightgrey" cx="351" cy="-106" rx="77.97" ry="18"/>
<text text-anchor="middle" x="351" y="-100.95" font-family="Times,serif" font-size="14.00">StringLiteral:Foo!</text>
</g>
<!-- n_src_9&#45;&gt;n_src_8 -->
<g id="edge13" class="edge">
<title>n_src_9&#45;&gt;n_src_8</title>
<path fill="none" stroke="black" d="M138.18,-164.08C181.04,-152.58 243.93,-135.72 290.24,-123.3"/>
<polygon fill="black" stroke="black" points="291.12,-126.68 299.87,-120.71 289.3,-119.92 291.12,-126.68"/>
</g>
<!-- n_dst_9 -->
<g id="node27" class="node">
<title>n_dst_9</title>
<ellipse fill="lightgrey" stroke="lightgrey" cx="784" cy="-106" rx="73.36" ry="18"/>
<text text-anchor="middle" x="784" y="-100.95" font-family="Times,serif" font-size="14.00">ReturnStatement</text>
</g>
<!-- n_src_9&#45;&gt;n_dst_9 -->
<g id="edge38" class="edge">
<title>n_src_9&#45;&gt;n_dst_9</title>
<path fill="none" stroke="black" stroke-dasharray="5,2" d="M142.31,-165.05C152.13,-163.12 162.35,-161.32 172,-160 404.59,-128.1 466.3,-155.09 699,-124 705.75,-123.1 712.78,-121.98 719.77,-120.76"/>
<polygon fill="black" stroke="black" points="719.98,-124.28 729.18,-119.03 718.72,-117.39 719.98,-124.28"/>
</g>
<!-- n_dst_8 -->
<g id="node28" class="node">
<title>n_dst_8</title>
<ellipse fill="lightgrey" stroke="lightgrey" cx="789" cy="-34" rx="77.97" ry="18"/>
<text text-anchor="middle" x="789" y="-28.95" font-family="Times,serif" font-size="14.00">StringLiteral:Foo!</text>
</g>
<!-- n_src_8&#45;&gt;n_dst_8 -->
<g id="edge35" class="edge">
<title>n_src_8&#45;&gt;n_dst_8</title>
<path fill="none" stroke="black" stroke-dasharray="5,2" d="M413.75,-94.97C493.36,-82.25 630.43,-60.34 715.04,-46.82"/>
<polygon fill="black" stroke="black" points="715.54,-50.28 724.87,-45.25 714.44,-43.37 715.54,-50.28"/>
</g>
<!-- n_dst_13&#45;&gt;n_dst_12 -->
<g id="edge14" class="edge">
<title>n_dst_13&#45;&gt;n_dst_12</title>
<path fill="none" stroke="black" d="M790.99,-375.7C791.41,-368.41 791.9,-359.73 792.37,-351.54"/>
<polygon fill="black" stroke="black" points="795.86,-351.8 792.94,-341.62 788.87,-351.4 795.86,-351.8"/>
</g>
<!-- n_dst_12&#45;&gt;n_dst_0 -->
<g id="edge15" class="edge">
<title>n_dst_12&#45;&gt;n_dst_0</title>
<path fill="none" stroke="black" d="M856.93,-312.63C944.1,-301.02 1102.95,-279.89 1209.98,-265.64"/>
<polygon fill="black" stroke="black" points="1210.19,-269.14 1219.64,-264.36 1209.27,-262.21 1210.19,-269.14"/>
</g>
<!-- n_dst_12&#45;&gt;n_dst_1 -->
<g id="edge16" class="edge">
<title>n_dst_12&#45;&gt;n_dst_1</title>
<path fill="none" stroke="black" d="M838.5,-307.34C873.09,-296.72 921.48,-281.86 959.89,-270.07"/>
<polygon fill="black" stroke="black" points="960.46,-273.56 968.99,-267.28 958.4,-266.86 960.46,-273.56"/>
</g>
<!-- n_dst_12&#45;&gt;n_dst_11 -->
<g id="edge17" class="edge">
<title>n_dst_12&#45;&gt;n_dst_11</title>
<path fill="none" stroke="black" d="M794,-303.7C794,-296.41 794,-287.73 794,-279.54"/>
<polygon fill="black" stroke="black" points="797.5,-279.62 794,-269.62 790.5,-279.62 797.5,-279.62"/>
</g>
<!-- n_dst_11&#45;&gt;n_dst_3 -->
<g id="edge18" class="edge">
<title>n_dst_11&#45;&gt;n_dst_3</title>
<path fill="none" stroke="black" d="M854.29,-237.34C864.84,-235.45 875.73,-233.59 886,-232 1013.48,-212.27 1047.28,-220.14 1174,-196 1178.39,-195.16 1182.91,-194.21 1187.44,-193.18"/>
<polygon fill="black" stroke="black" points="1188.25,-196.59 1197.17,-190.87 1186.63,-189.78 1188.25,-196.59"/>
</g>
<!-- n_dst_11&#45;&gt;n_dst_4 -->
<g id="edge20" class="edge">
<title>n_dst_11&#45;&gt;n_dst_4</title>
<path fill="none" stroke="black" d="M853.75,-237.09C864.46,-235.2 875.54,-233.41 886,-232 1071.23,-206.99 1119.31,-217.33 1305,-196 1314.31,-194.93 1324.02,-193.71 1333.69,-192.42"/>
<polygon fill="black" stroke="black" points="1334.07,-195.9 1343.51,-191.08 1333.13,-188.96 1334.07,-195.9"/>
</g>
<!-- n_dst_11&#45;&gt;n_dst_7 -->
<g id="edge21" class="edge">
<title>n_dst_11&#45;&gt;n_dst_7</title>
<path fill="none" stroke="black" d="M845.02,-235.42C886.56,-224.36 945.5,-208.68 990.7,-196.65"/>
<polygon fill="black" stroke="black" points="991.35,-200.09 1000.12,-194.14 989.55,-193.33 991.35,-200.09"/>
</g>
<!-- n_dst_11&#45;&gt;n_dst_10 -->
<g id="edge24" class="edge">
<title>n_dst_11&#45;&gt;n_dst_10</title>
<path fill="none" stroke="black" d="M800.67,-231.7C803.58,-224.15 807.07,-215.12 810.32,-206.68"/>
<polygon fill="black" stroke="black" points="813.52,-208.11 813.86,-197.52 806.99,-205.59 813.52,-208.11"/>
</g>
<!-- n_dst_3&#45;&gt;n_dst_2 -->
<g id="edge19" class="edge">
<title>n_dst_3&#45;&gt;n_dst_2</title>
<path fill="none" stroke="black" d="M1273.59,-163.17C1298.04,-153.1 1331.59,-139.29 1359.29,-127.88"/>
<polygon fill="black" stroke="black" points="1360.28,-131.26 1368.2,-124.21 1357.62,-124.78 1360.28,-131.26"/>
</g>
<!-- n_dst_7&#45;&gt;n_dst_5 -->
<g id="edge22" class="edge">
<title>n_dst_7&#45;&gt;n_dst_5</title>
<path fill="none" stroke="black" d="M1032.31,-160.05C1019.18,-151.05 1002.86,-139.84 988.59,-130.05"/>
<polygon fill="black" stroke="black" points="990.59,-127.18 980.36,-124.4 986.62,-132.95 990.59,-127.18"/>
</g>
<!-- n_dst_7&#45;&gt;n_dst_6 -->
<g id="edge23" class="edge">
<title>n_dst_7&#45;&gt;n_dst_6</title>
<path fill="none" stroke="black" d="M1080.24,-160.05C1092.38,-151.2 1107.44,-140.22 1120.7,-130.55"/>
<polygon fill="black" stroke="black" points="1122.73,-133.4 1128.75,-124.68 1118.61,-127.74 1122.73,-133.4"/>
</g>
<!-- n_dst_10&#45;&gt;n_dst_9 -->
<g id="edge25" class="edge">
<title>n_dst_10&#45;&gt;n_dst_9</title>
<path fill="none" stroke="black" d="M811.85,-159.7C807.78,-151.98 802.88,-142.71 798.33,-134.11"/>
<polygon fill="black" stroke="black" points="801.52,-132.65 793.75,-125.44 795.33,-135.92 801.52,-132.65"/>
</g>
<!-- n_dst_9&#45;&gt;n_dst_8 -->
<g id="edge26" class="edge">
<title>n_dst_9&#45;&gt;n_dst_8</title>
<path fill="none" stroke="black" d="M785.24,-87.7C785.76,-80.41 786.38,-71.73 786.96,-63.54"/>
<polygon fill="black" stroke="black" points="790.45,-63.84 787.67,-53.61 783.47,-63.34 790.45,-63.84"/>
</g>
</g>
</svg>
