<?xml version="1.0" encoding="UTF-8" standalone="no"?>
<!DOCTYPE svg PUBLIC "-//W3C//DTD SVG 1.1//EN"
 "http://www.w3.org/Graphics/SVG/1.1/DTD/svg11.dtd">
<!-- Generated by graphviz version 12.2.1 (20241206.2353)
 -->
<!-- Title: G Pages: 1 -->
<svg width="1709pt" height="508pt"
 viewBox="0.00 0.00 1709.00 508.00" xmlns="http://www.w3.org/2000/svg" xmlns:xlink="http://www.w3.org/1999/xlink">
<g id="graph0" class="graph" transform="scale(1 1) rotate(0) translate(4 504)">
<title>G</title>
<polygon fill="white" stroke="none" points="-4,4 -4,-504 1705,-504 1705,4 -4,4"/>
<g id="clust1" class="cluster">
<title>cluster_src</title>
<polygon fill="none" stroke="black" points="8,-80 8,-492 695,-492 695,-80 8,-80"/>
</g>
<g id="clust2" class="cluster">
<title>cluster_dst</title>
<polygon fill="none" stroke="black" points="703,-8 703,-420 1693,-420 1693,-8 703,-8"/>
</g>
<!-- n_src_13 -->
<g id="node1" class="node">
<title>n_src_13</title>
<ellipse fill="lightgrey" stroke="lightgrey" cx="281" cy="-466" rx="73.87" ry="18"/>
<text text-anchor="middle" x="281" y="-460.95" font-family="Times,serif" font-size="14.00">CompilationUnit</text>
</g>
<!-- n_src_12 -->
<g id="node2" class="node">
<title>n_src_12</title>
<ellipse fill="lightgrey" stroke="lightgrey" cx="281" cy="-394" rx="72.85" ry="18"/>
<text text-anchor="middle" x="281" y="-388.95" font-family="Times,serif" font-size="14.00">TypeDeclaration</text>
</g>
<!-- n_src_13&#45;&gt;n_src_12 -->
<g id="edge1" class="edge">
<title>n_src_13&#45;&gt;n_src_12</title>
<path fill="none" stroke="black" d="M281,-447.7C281,-440.41 281,-431.73 281,-423.54"/>
<polygon fill="black" stroke="black" points="284.5,-423.62 281,-413.62 277.5,-423.62 284.5,-423.62"/>
</g>
<!-- n_src_0 -->
<g id="node3" class="node">
<title>n_src_0</title>
<ellipse fill="lightgrey" stroke="lightgrey" cx="533" cy="-322" rx="153.71" ry="18"/>
<text text-anchor="middle" x="533" y="-316.95" font-family="Times,serif" font-size="14.00">TYPE_DECLARATION_KIND: class</text>
</g>
<!-- n_src_12&#45;&gt;n_src_0 -->
<g id="edge2" class="edge">
<title>n_src_12&#45;&gt;n_src_0</title>
<path fill="none" stroke="black" d="M328.1,-379.92C366.37,-369.29 420.88,-354.14 464.06,-342.15"/>
<polygon fill="black" stroke="black" points="464.9,-345.55 473.6,-339.5 463.03,-338.8 464.9,-345.55"/>
</g>
<!-- n_src_1 -->
<g id="node4" class="node">
<title>n_src_1</title>
<ellipse fill="lightgrey" stroke="lightgrey" cx="281" cy="-322" rx="80.52" ry="18"/>
<text text-anchor="middle" x="281" y="-316.95" font-family="Times,serif" font-size="14.00">SimpleName: Test</text>
</g>
<!-- n_src_12&#45;&gt;n_src_1 -->
<g id="edge3" class="edge">
<title>n_src_12&#45;&gt;n_src_1</title>
<path fill="none" stroke="black" d="M281,-375.7C281,-368.41 281,-359.73 281,-351.54"/>
<polygon fill="black" stroke="black" points="284.5,-351.62 281,-341.62 277.5,-351.62 284.5,-351.62"/>
</g>
<!-- n_src_11 -->
<g id="node5" class="node">
<title>n_src_11</title>
<ellipse fill="lightgrey" stroke="lightgrey" cx="99" cy="-322" rx="83.08" ry="18"/>
<text text-anchor="middle" x="99" y="-316.95" font-family="Times,serif" font-size="14.00">MethodDeclaration</text>
</g>
<!-- n_src_12&#45;&gt;n_src_11 -->
<g id="edge4" class="edge">
<title>n_src_12&#45;&gt;n_src_11</title>
<path fill="none" stroke="black" d="M242.85,-378.33C215.65,-367.86 178.81,-353.69 149.22,-342.31"/>
<polygon fill="black" stroke="black" points="150.68,-339.13 140.09,-338.8 148.17,-345.66 150.68,-339.13"/>
</g>
<!-- n_dst_1 -->
<g id="node18" class="node">
<title>n_dst_1</title>
<ellipse fill="orange" stroke="orange" cx="838" cy="-250" rx="126.59" ry="18"/>
<text text-anchor="middle" x="838" y="-244.95" font-family="Times,serif" font-size="14.00">SimpleName_TypeDeclaration</text>
</g>
<!-- n_src_1&#45;&gt;n_dst_1 -->
<g id="edge28" class="edge">
<title>n_src_1&#45;&gt;n_dst_1</title>
<path fill="none" stroke="blue" d="M339.29,-309.18C349.5,-307.3 360.04,-305.49 370,-304 515.47,-282.18 552.88,-284.93 699,-268 710.26,-266.7 722.02,-265.3 733.73,-263.9"/>
<polygon fill="blue" stroke="blue" points="733.92,-267.4 743.43,-262.73 733.08,-260.45 733.92,-267.4"/>
</g>
<!-- n_src_3 -->
<g id="node6" class="node">
<title>n_src_3</title>
<ellipse fill="lightgrey" stroke="lightgrey" cx="341" cy="-250" rx="56.47" ry="18"/>
<text text-anchor="middle" x="341" y="-244.95" font-family="Times,serif" font-size="14.00">SimpleType</text>
</g>
<!-- n_src_11&#45;&gt;n_src_3 -->
<g id="edge5" class="edge">
<title>n_src_11&#45;&gt;n_src_3</title>
<path fill="none" stroke="black" d="M147.39,-307C188.54,-295.1 247.47,-278.05 289.49,-265.9"/>
<polygon fill="black" stroke="black" points="290.24,-269.33 298.87,-263.19 288.29,-262.6 290.24,-269.33"/>
</g>
<!-- n_src_4 -->
<g id="node8" class="node">
<title>n_src_4</title>
<ellipse fill="lightgrey" stroke="lightgrey" cx="610" cy="-250" rx="77.45" ry="18"/>
<text text-anchor="middle" x="610" y="-244.95" font-family="Times,serif" font-size="14.00">SimpleName: foo</text>
</g>
<!-- n_src_11&#45;&gt;n_src_4 -->
<g id="edge7" class="edge">
<title>n_src_11&#45;&gt;n_src_4</title>
<path fill="none" stroke="black" d="M159.27,-309.19C169.82,-307.32 180.71,-305.5 191,-304 338.3,-282.46 376.84,-290.46 524,-268 530.26,-267.04 536.77,-265.95 543.26,-264.79"/>
<polygon fill="black" stroke="black" points="543.46,-268.31 552.66,-263.05 542.19,-261.43 543.46,-268.31"/>
</g>
<!-- n_src_7 -->
<g id="node9" class="node">
<title>n_src_7</title>
<ellipse fill="lightgrey" stroke="lightgrey" cx="124" cy="-250" rx="108.16" ry="18"/>
<text text-anchor="middle" x="124" y="-244.95" font-family="Times,serif" font-size="14.00">SingleVariableDeclaration</text>
</g>
<!-- n_src_11&#45;&gt;n_src_7 -->
<g id="edge8" class="edge">
<title>n_src_11&#45;&gt;n_src_7</title>
<path fill="none" stroke="black" d="M105.18,-303.7C107.87,-296.15 111.1,-287.12 114.11,-278.68"/>
<polygon fill="black" stroke="black" points="117.31,-280.12 117.38,-269.53 110.72,-277.77 117.31,-280.12"/>
</g>
<!-- n_src_10 -->
<g id="node12" class="node">
<title>n_src_10</title>
<ellipse fill="lightgrey" stroke="lightgrey" cx="482" cy="-250" rx="32.93" ry="18"/>
<text text-anchor="middle" x="482" y="-244.95" font-family="Times,serif" font-size="14.00">Block</text>
</g>
<!-- n_src_11&#45;&gt;n_src_10 -->
<g id="edge11" class="edge">
<title>n_src_11&#45;&gt;n_src_10</title>
<path fill="none" stroke="black" d="M160.34,-309.52C170.57,-307.64 181.08,-305.75 191,-304 286.42,-287.2 310.91,-286.58 406,-268 417.44,-265.76 429.8,-263.1 441.16,-260.56"/>
<polygon fill="black" stroke="black" points="441.66,-264.04 450.64,-258.41 440.12,-257.21 441.66,-264.04"/>
</g>
<!-- n_src_2 -->
<g id="node7" class="node">
<title>n_src_2</title>
<ellipse fill="lightgrey" stroke="lightgrey" cx="434" cy="-178" rx="87.69" ry="18"/>
<text text-anchor="middle" x="434" y="-172.95" font-family="Times,serif" font-size="14.00">SimpleName: String</text>
</g>
<!-- n_src_3&#45;&gt;n_src_2 -->
<g id="edge6" class="edge">
<title>n_src_3&#45;&gt;n_src_2</title>
<path fill="none" stroke="black" d="M362.1,-233.12C374.12,-224.07 389.4,-212.57 402.79,-202.49"/>
<polygon fill="black" stroke="black" points="404.59,-205.52 410.47,-196.71 400.38,-199.92 404.59,-205.52"/>
</g>
<!-- n_dst_2 -->
<g id="node21" class="node">
<title>n_dst_2</title>
<ellipse fill="orange" stroke="orange" cx="1370" cy="-106" rx="137.85" ry="18"/>
<text text-anchor="middle" x="1370" y="-100.95" font-family="Times,serif" font-size="14.00">SimpleName_SimpleType: String</text>
</g>
<!-- n_src_2&#45;&gt;n_dst_2 -->
<g id="edge30" class="edge">
<title>n_src_2&#45;&gt;n_dst_2</title>
<path fill="none" stroke="blue" d="M496.19,-164.95C507.73,-163.04 519.7,-161.28 531,-160 837.46,-125.32 916.67,-149.85 1224,-124 1236.29,-122.97 1249.15,-121.72 1261.92,-120.37"/>
<polygon fill="blue" stroke="blue" points="1262.03,-123.88 1271.59,-119.33 1261.28,-116.92 1262.03,-123.88"/>
</g>
<!-- n_dst_4 -->
<g id="node22" class="node">
<title>n_dst_4</title>
<ellipse fill="orange" stroke="orange" cx="1057" cy="-178" rx="108.67" ry="18"/>
<text text-anchor="middle" x="1057" y="-172.95" font-family="Times,serif" font-size="14.00">SimpleName_MethodDec</text>
</g>
<!-- n_src_4&#45;&gt;n_dst_4 -->
<g id="edge29" class="edge">
<title>n_src_4&#45;&gt;n_dst_4</title>
<path fill="none" stroke="blue" d="M667.39,-237.67C677.89,-235.7 688.76,-233.73 699,-232 724.81,-227.63 868.73,-206.49 966.05,-192.26"/>
<polygon fill="blue" stroke="blue" points="966.49,-195.74 975.88,-190.83 965.48,-188.81 966.49,-195.74"/>
</g>
<!-- n_src_5 -->
<g id="node10" class="node">
<title>n_src_5</title>
<ellipse fill="lightgrey" stroke="lightgrey" cx="96" cy="-178" rx="79.5" ry="18"/>
<text text-anchor="middle" x="96" y="-172.95" font-family="Times,serif" font-size="14.00">PrimitiveType: int</text>
</g>
<!-- n_src_7&#45;&gt;n_src_5 -->
<g id="edge9" class="edge">
<title>n_src_7&#45;&gt;n_src_5</title>
<path fill="none" stroke="black" d="M117.08,-231.7C114.06,-224.15 110.45,-215.12 107.07,-206.68"/>
<polygon fill="black" stroke="black" points="110.37,-205.49 103.4,-197.51 103.87,-208.09 110.37,-205.49"/>
</g>
<!-- n_src_6 -->
<g id="node11" class="node">
<title>n_src_6</title>
<ellipse fill="lightgrey" stroke="lightgrey" cx="261" cy="-178" rx="67.73" ry="18"/>
<text text-anchor="middle" x="261" y="-172.95" font-family="Times,serif" font-size="14.00">SimpleName: i</text>
</g>
<!-- n_src_7&#45;&gt;n_src_6 -->
<g id="edge10" class="edge">
<title>n_src_7&#45;&gt;n_src_6</title>
<path fill="none" stroke="black" d="M156.47,-232.41C175.69,-222.59 200.21,-210.06 220.67,-199.61"/>
<polygon fill="black" stroke="black" points="221.98,-202.87 229.3,-195.2 218.8,-196.63 221.98,-202.87"/>
</g>
<!-- n_dst_6 -->
<g id="node25" class="node">
<title>n_dst_6</title>
<ellipse fill="orange" stroke="orange" cx="1045" cy="-106" rx="169.58" ry="18"/>
<text text-anchor="middle" x="1045" y="-100.95" font-family="Times,serif" font-size="14.00">SimpleName_SingleVariableDeclaration: i</text>
</g>
<!-- n_src_6&#45;&gt;n_dst_6 -->
<g id="edge31" class="edge">
<title>n_src_6&#45;&gt;n_dst_6</title>
<path fill="none" stroke="blue" d="M309.45,-165.01C318.56,-163.08 328.04,-161.3 337,-160 570.22,-126.18 631.12,-143.14 866,-124 881.02,-122.78 896.74,-121.41 912.37,-120"/>
<polygon fill="blue" stroke="blue" points="912.57,-123.49 922.21,-119.1 911.93,-116.52 912.57,-123.49"/>
</g>
<!-- n_src_9 -->
<g id="node13" class="node">
<title>n_src_9</title>
<ellipse fill="lightgrey" stroke="lightgrey" cx="613" cy="-178" rx="73.36" ry="18"/>
<text text-anchor="middle" x="613" y="-172.95" font-family="Times,serif" font-size="14.00">ReturnStatement</text>
</g>
<!-- n_src_10&#45;&gt;n_src_9 -->
<g id="edge12" class="edge">
<title>n_src_10&#45;&gt;n_src_9</title>
<path fill="none" stroke="black" d="M505.12,-236.65C523.97,-226.57 551.04,-212.11 573.34,-200.19"/>
<polygon fill="black" stroke="black" points="574.7,-203.43 581.87,-195.63 571.4,-197.26 574.7,-203.43"/>
</g>
<!-- n_dst_10 -->
<g id="node26" class="node">
<title>n_dst_10</title>
<ellipse fill="orange" stroke="orange" cx="821" cy="-178" rx="109.7" ry="18"/>
<text text-anchor="middle" x="821" y="-172.95" font-family="Times,serif" font-size="14.00">Block_MethodDeclaration</text>
</g>
<!-- n_src_10&#45;&gt;n_dst_10 -->
<g id="edge27" class="edge">
<title>n_src_10&#45;&gt;n_dst_10</title>
<path fill="none" stroke="blue" stroke-dasharray="5,2" d="M507.02,-237.88C512.54,-235.71 518.41,-233.61 524,-232 562.12,-221.01 659.11,-204.47 731.96,-192.8"/>
<polygon fill="blue" stroke="blue" points="732.16,-196.31 741.48,-191.28 731.05,-189.4 732.16,-196.31"/>
</g>
<!-- n_src_8 -->
<g id="node14" class="node">
<title>n_src_8</title>
<ellipse fill="lightgrey" stroke="lightgrey" cx="609" cy="-106" rx="77.97" ry="18"/>
<text text-anchor="middle" x="609" y="-100.95" font-family="Times,serif" font-size="14.00">StringLiteral:Foo!</text>
</g>
<!-- n_src_9&#45;&gt;n_src_8 -->
<g id="edge13" class="edge">
<title>n_src_9&#45;&gt;n_src_8</title>
<path fill="none" stroke="black" d="M612.01,-159.7C611.59,-152.41 611.1,-143.73 610.63,-135.54"/>
<polygon fill="black" stroke="black" points="614.13,-135.4 610.06,-125.62 607.14,-135.8 614.13,-135.4"/>
</g>
<!-- n_dst_13 -->
<g id="node15" class="node">
<title>n_dst_13</title>
<ellipse fill="lightgrey" stroke="lightgrey" cx="1136" cy="-394" rx="73.87" ry="18"/>
<text text-anchor="middle" x="1136" y="-388.95" font-family="Times,serif" font-size="14.00">CompilationUnit</text>
</g>
<!-- n_dst_12 -->
<g id="node16" class="node">
<title>n_dst_12</title>
<ellipse fill="lightgrey" stroke="lightgrey" cx="1136" cy="-322" rx="72.85" ry="18"/>
<text text-anchor="middle" x="1136" y="-316.95" font-family="Times,serif" font-size="14.00">TypeDeclaration</text>
</g>
<!-- n_dst_13&#45;&gt;n_dst_12 -->
<g id="edge14" class="edge">
<title>n_dst_13&#45;&gt;n_dst_12</title>
<path fill="none" stroke="black" d="M1136,-375.7C1136,-368.41 1136,-359.73 1136,-351.54"/>
<polygon fill="black" stroke="black" points="1139.5,-351.62 1136,-341.62 1132.5,-351.62 1139.5,-351.62"/>
</g>
<!-- n_dst_0 -->
<g id="node17" class="node">
<title>n_dst_0</title>
<ellipse fill="lightgrey" stroke="lightgrey" cx="1136" cy="-250" rx="153.71" ry="18"/>
<text text-anchor="middle" x="1136" y="-244.95" font-family="Times,serif" font-size="14.00">TYPE_DECLARATION_KIND: class</text>
</g>
<!-- n_dst_12&#45;&gt;n_dst_0 -->
<g id="edge15" class="edge">
<title>n_dst_12&#45;&gt;n_dst_0</title>
<path fill="none" stroke="black" d="M1136,-303.7C1136,-296.41 1136,-287.73 1136,-279.54"/>
<polygon fill="black" stroke="black" points="1139.5,-279.62 1136,-269.62 1132.5,-279.62 1139.5,-279.62"/>
</g>
<!-- n_dst_12&#45;&gt;n_dst_1 -->
<g id="edge16" class="edge">
<title>n_dst_12&#45;&gt;n_dst_1</title>
<path fill="none" stroke="black" d="M1084.43,-308.89C1037.08,-297.76 966.34,-281.15 912.78,-268.57"/>
<polygon fill="black" stroke="black" points="913.63,-265.17 903.1,-266.29 912.03,-271.99 913.63,-265.17"/>
</g>
<!-- n_dst_11 -->
<g id="node19" class="node">
<title>n_dst_11</title>
<ellipse fill="lightgrey" stroke="lightgrey" cx="1391" cy="-250" rx="83.08" ry="18"/>
<text text-anchor="middle" x="1391" y="-244.95" font-family="Times,serif" font-size="14.00">MethodDeclaration</text>
</g>
<!-- n_dst_12&#45;&gt;n_dst_11 -->
<g id="edge17" class="edge">
<title>n_dst_12&#45;&gt;n_dst_11</title>
<path fill="none" stroke="black" d="M1183.37,-308C1224.66,-296.66 1284.81,-280.15 1329.76,-267.81"/>
<polygon fill="black" stroke="black" points="1330.66,-271.19 1339.38,-265.17 1328.81,-264.44 1330.66,-271.19"/>
</g>
<!-- n_dst_3 -->
<g id="node20" class="node">
<title>n_dst_3</title>
<ellipse fill="lightgrey" stroke="lightgrey" cx="1475" cy="-178" rx="56.47" ry="18"/>
<text text-anchor="middle" x="1475" y="-172.95" font-family="Times,serif" font-size="14.00">SimpleType</text>
</g>
<!-- n_dst_11&#45;&gt;n_dst_3 -->
<g id="edge18" class="edge">
<title>n_dst_11&#45;&gt;n_dst_3</title>
<path fill="none" stroke="black" d="M1410.91,-232.41C1421.65,-223.45 1435.1,-212.25 1446.9,-202.42"/>
<polygon fill="black" stroke="black" points="1448.92,-205.29 1454.36,-196.2 1444.44,-199.91 1448.92,-205.29"/>
</g>
<!-- n_dst_11&#45;&gt;n_dst_4 -->
<g id="edge20" class="edge">
<title>n_dst_11&#45;&gt;n_dst_4</title>
<path fill="none" stroke="black" d="M1332.82,-236.81C1277.57,-225.23 1194.18,-207.75 1133.56,-195.04"/>
<polygon fill="black" stroke="black" points="1134.5,-191.67 1124,-193.04 1133.07,-198.52 1134.5,-191.67"/>
</g>
<!-- n_dst_7 -->
<g id="node23" class="node">
<title>n_dst_7</title>
<ellipse fill="lightgrey" stroke="lightgrey" cx="1292" cy="-178" rx="108.16" ry="18"/>
<text text-anchor="middle" x="1292" y="-172.95" font-family="Times,serif" font-size="14.00">SingleVariableDeclaration</text>
</g>
<!-- n_dst_11&#45;&gt;n_dst_7 -->
<g id="edge21" class="edge">
<title>n_dst_11&#45;&gt;n_dst_7</title>
<path fill="none" stroke="black" d="M1367.54,-232.41C1354.9,-223.48 1339.1,-212.3 1325.22,-202.49"/>
<polygon fill="black" stroke="black" points="1327.4,-199.75 1317.22,-196.83 1323.36,-205.46 1327.4,-199.75"/>
</g>
<!-- n_dst_11&#45;&gt;n_dst_10 -->
<g id="edge24" class="edge">
<title>n_dst_11&#45;&gt;n_dst_10</title>
<path fill="none" stroke="black" d="M1331.24,-237.21C1320.53,-235.31 1309.45,-233.49 1299,-232 1139.8,-209.37 1098.62,-215.47 939,-196 930.02,-194.9 920.66,-193.69 911.32,-192.42"/>
<polygon fill="black" stroke="black" points="911.84,-188.96 901.46,-191.07 910.89,-195.9 911.84,-188.96"/>
</g>
<!-- n_dst_3&#45;&gt;n_dst_2 -->
<g id="edge19" class="edge">
<title>n_dst_3&#45;&gt;n_dst_2</title>
<path fill="none" stroke="black" d="M1451.44,-161.29C1437.72,-152.14 1420.16,-140.44 1404.87,-130.25"/>
<polygon fill="black" stroke="black" points="1407.21,-127.6 1396.95,-124.97 1403.33,-133.43 1407.21,-127.6"/>
</g>
<!-- n_dst_5 -->
<g id="node24" class="node">
<title>n_dst_5</title>
<ellipse fill="lightgrey" stroke="lightgrey" cx="1605" cy="-106" rx="79.5" ry="18"/>
<text text-anchor="middle" x="1605" y="-100.95" font-family="Times,serif" font-size="14.00">PrimitiveType: int</text>
</g>
<!-- n_dst_7&#45;&gt;n_dst_5 -->
<g id="edge22" class="edge">
<title>n_dst_7&#45;&gt;n_dst_5</title>
<path fill="none" stroke="black" d="M1354.59,-163C1408,-151.06 1484.56,-133.94 1538.94,-121.77"/>
<polygon fill="black" stroke="black" points="1539.38,-125.26 1548.38,-119.66 1537.85,-118.43 1539.38,-125.26"/>
</g>
<!-- n_dst_7&#45;&gt;n_dst_6 -->
<g id="edge23" class="edge">
<title>n_dst_7&#45;&gt;n_dst_6</title>
<path fill="none" stroke="black" d="M1238.71,-161.9C1202.02,-151.5 1152.96,-137.6 1113.39,-126.38"/>
<polygon fill="black" stroke="black" points="1114.53,-123.07 1103.96,-123.71 1112.63,-129.8 1114.53,-123.07"/>
</g>
<!-- n_dst_9 -->
<g id="node27" class="node">
<title>n_dst_9</title>
<ellipse fill="lightgrey" stroke="lightgrey" cx="784" cy="-106" rx="73.36" ry="18"/>
<text text-anchor="middle" x="784" y="-100.95" font-family="Times,serif" font-size="14.00">ReturnStatement</text>
</g>
<!-- n_dst_10&#45;&gt;n_dst_9 -->
<g id="edge25" class="edge">
<title>n_dst_10&#45;&gt;n_dst_9</title>
<path fill="none" stroke="black" d="M811.85,-159.7C807.78,-151.98 802.88,-142.71 798.33,-134.11"/>
<polygon fill="black" stroke="black" points="801.52,-132.65 793.75,-125.44 795.33,-135.92 801.52,-132.65"/>
</g>
<!-- n_dst_8 -->
<g id="node28" class="node">
<title>n_dst_8</title>
<ellipse fill="lightgrey" stroke="lightgrey" cx="789" cy="-34" rx="77.97" ry="18"/>
<text text-anchor="middle" x="789" y="-28.95" font-family="Times,serif" font-size="14.00">StringLiteral:Foo!</text>
</g>
<!-- n_dst_9&#45;&gt;n_dst_8 -->
<g id="edge26" class="edge">
<title>n_dst_9&#45;&gt;n_dst_8</title>
<path fill="none" stroke="black" d="M785.24,-87.7C785.76,-80.41 786.38,-71.73 786.96,-63.54"/>
<polygon fill="black" stroke="black" points="790.45,-63.84 787.67,-53.61 783.47,-63.34 790.45,-63.84"/>
</g>
</g>
</svg>
